<?xml version="1.0" encoding="utf-8" standalone="no"?>
<!DOCTYPE svg PUBLIC "-//W3C//DTD SVG 1.1//EN"
  "http://www.w3.org/Graphics/SVG/1.1/DTD/svg11.dtd">
<svg xmlns:xlink="http://www.w3.org/1999/xlink" width="864pt" height="288pt" viewBox="0 0 864 288" xmlns="http://www.w3.org/2000/svg" version="1.1">
 <metadata>
  <rdf:RDF xmlns:dc="http://purl.org/dc/elements/1.1/" xmlns:cc="http://creativecommons.org/ns#" xmlns:rdf="http://www.w3.org/1999/02/22-rdf-syntax-ns#">
   <cc:Work>
    <dc:type rdf:resource="http://purl.org/dc/dcmitype/StillImage"/>
    <dc:date>2024-09-18T20:22:06.566750</dc:date>
    <dc:format>image/svg+xml</dc:format>
    <dc:creator>
     <cc:Agent>
      <dc:title>Matplotlib v3.8.4, https://matplotlib.org/</dc:title>
     </cc:Agent>
    </dc:creator>
   </cc:Work>
  </rdf:RDF>
 </metadata>
 <defs>
  <style type="text/css">*{stroke-linejoin: round; stroke-linecap: butt}</style>
 </defs>
 <g id="figure_1">
  <g id="patch_1">
   <path d="M 0 288 
L 864 288 
L 864 0 
L 0 0 
z
"/>
  </g>
  <g id="axes_1">
   <g id="patch_2">
    <path d="M 60.48 253.44 
L 423.36 253.44 
L 423.36 5.76 
L 60.48 5.76 
z
"/>
   </g>
   <g id="matplotlib.axis_1">
    <g id="xtick_1">
     <g id="line2d_1">
      <path d="M 99.467107 253.44 
L 99.467107 5.76 
" clip-path="url(#p7f3d8c0a57)" style="fill: none; stroke-dasharray: 3.7,1.6; stroke-dashoffset: 0; stroke: #ffffff"/>
     </g>
     <g id="text_1">
      <!-- $\mathdefault{1880}$ -->
      <g style="fill: #ffffff" transform="translate(88.508173 270.550347) scale(0.11 -0.11)">
       <defs>
        <path id="CMR17-31" d="M 1702 4058 
C 1702 4192 1696 4192 1606 4192 
C 1357 3916 979 3827 621 3827 
C 602 3827 570 3827 563 3808 
C 557 3795 557 3782 557 3648 
C 755 3648 1088 3686 1344 3839 
L 1344 461 
C 1344 236 1331 160 781 160 
L 589 160 
L 589 0 
C 896 0 1216 0 1523 0 
C 1830 0 2150 0 2458 0 
L 2458 160 
L 2266 160 
C 1715 160 1702 230 1702 458 
L 1702 4058 
z
" transform="scale(0.015625)"/>
        <path id="CMR17-38" d="M 1741 2264 
C 2144 2467 2554 2773 2554 3263 
C 2554 3841 1990 4179 1472 4179 
C 890 4179 378 3759 378 3180 
C 378 3021 416 2747 666 2505 
C 730 2442 998 2251 1171 2130 
C 883 1983 211 1634 211 934 
C 211 279 838 -128 1459 -128 
C 2144 -128 2720 362 2720 1010 
C 2720 1590 2330 1857 2074 2029 
L 1741 2264 
z
M 902 2822 
C 851 2854 595 3051 595 3351 
C 595 3739 998 4032 1459 4032 
C 1965 4032 2336 3676 2336 3262 
C 2336 2669 1670 2331 1638 2331 
C 1632 2331 1626 2331 1574 2370 
L 902 2822 
z
M 2080 1519 
C 2176 1449 2483 1240 2483 851 
C 2483 381 2010 25 1472 25 
C 890 25 448 438 448 940 
C 448 1443 838 1862 1280 2060 
L 2080 1519 
z
" transform="scale(0.015625)"/>
        <path id="CMR17-30" d="M 2688 2025 
C 2688 2416 2682 3080 2413 3591 
C 2176 4039 1798 4198 1466 4198 
C 1158 4198 768 4058 525 3597 
C 269 3118 243 2524 243 2025 
C 243 1661 250 1106 448 619 
C 723 -39 1216 -128 1466 -128 
C 1760 -128 2208 -7 2470 600 
C 2662 1042 2688 1559 2688 2025 
z
M 1466 -26 
C 1056 -26 813 325 723 812 
C 653 1188 653 1738 653 2096 
C 653 2588 653 2997 736 3387 
C 858 3929 1216 4096 1466 4096 
C 1728 4096 2067 3923 2189 3400 
C 2272 3036 2278 2607 2278 2096 
C 2278 1680 2278 1169 2202 792 
C 2067 95 1690 -26 1466 -26 
z
" transform="scale(0.015625)"/>
       </defs>
       <use xlink:href="#CMR17-31" transform="scale(0.996264)"/>
       <use xlink:href="#CMR17-38" transform="translate(45.690477 0) scale(0.996264)"/>
       <use xlink:href="#CMR17-38" transform="translate(91.380954 0) scale(0.996264)"/>
       <use xlink:href="#CMR17-30" transform="translate(137.071431 0) scale(0.996264)"/>
      </g>
     </g>
    </g>
    <g id="xtick_2">
     <g id="line2d_2">
      <path d="M 142.310083 253.44 
L 142.310083 5.76 
" clip-path="url(#p7f3d8c0a57)" style="fill: none; stroke-dasharray: 3.7,1.6; stroke-dashoffset: 0; stroke: #ffffff"/>
     </g>
     <g id="text_2">
      <!-- $\mathdefault{1900}$ -->
      <g style="fill: #ffffff" transform="translate(131.351148 270.550347) scale(0.11 -0.11)">
       <defs>
        <path id="CMR17-39" d="M 2253 1864 
C 2253 464 1670 31 1190 31 
C 1043 31 685 31 538 294 
C 704 268 826 357 826 518 
C 826 692 685 749 595 749 
C 538 749 365 723 365 506 
C 365 71 742 -128 1203 -128 
C 1939 -128 2688 674 2688 2073 
C 2688 3817 1971 4179 1485 4179 
C 851 4179 243 3628 243 2778 
C 243 1991 762 1408 1414 1408 
C 1952 1408 2189 1903 2253 2112 
L 2253 1864 
z
M 1427 1510 
C 1254 1510 1011 1542 813 1922 
C 678 2169 678 2461 678 2771 
C 678 3146 678 3405 858 3684 
C 947 3817 1114 4032 1485 4032 
C 2240 4032 2240 2885 2240 2632 
C 2240 2182 2035 1510 1427 1510 
z
" transform="scale(0.015625)"/>
       </defs>
       <use xlink:href="#CMR17-31" transform="scale(0.996264)"/>
       <use xlink:href="#CMR17-39" transform="translate(45.690477 0) scale(0.996264)"/>
       <use xlink:href="#CMR17-30" transform="translate(91.380954 0) scale(0.996264)"/>
       <use xlink:href="#CMR17-30" transform="translate(137.071431 0) scale(0.996264)"/>
      </g>
     </g>
    </g>
    <g id="xtick_3">
     <g id="line2d_3">
      <path d="M 185.153058 253.44 
L 185.153058 5.76 
" clip-path="url(#p7f3d8c0a57)" style="fill: none; stroke-dasharray: 3.7,1.6; stroke-dashoffset: 0; stroke: #ffffff"/>
     </g>
     <g id="text_3">
      <!-- $\mathdefault{1920}$ -->
      <g style="fill: #ffffff" transform="translate(174.194123 270.550347) scale(0.11 -0.11)">
       <defs>
        <path id="CMR17-32" d="M 2669 989 
L 2554 989 
C 2490 536 2438 459 2413 420 
C 2381 369 1920 369 1830 369 
L 602 369 
C 832 619 1280 1072 1824 1597 
C 2214 1967 2669 2402 2669 3035 
C 2669 3790 2067 4224 1395 4224 
C 691 4224 262 3604 262 3030 
C 262 2780 448 2748 525 2748 
C 589 2748 781 2787 781 3010 
C 781 3207 614 3264 525 3264 
C 486 3264 448 3258 422 3245 
C 544 3790 915 4058 1306 4058 
C 1862 4058 2227 3617 2227 3035 
C 2227 2479 1901 2000 1536 1584 
L 262 146 
L 262 0 
L 2515 0 
L 2669 989 
z
" transform="scale(0.015625)"/>
       </defs>
       <use xlink:href="#CMR17-31" transform="scale(0.996264)"/>
       <use xlink:href="#CMR17-39" transform="translate(45.690477 0) scale(0.996264)"/>
       <use xlink:href="#CMR17-32" transform="translate(91.380954 0) scale(0.996264)"/>
       <use xlink:href="#CMR17-30" transform="translate(137.071431 0) scale(0.996264)"/>
      </g>
     </g>
    </g>
    <g id="xtick_4">
     <g id="line2d_4">
      <path d="M 227.996033 253.44 
L 227.996033 5.76 
" clip-path="url(#p7f3d8c0a57)" style="fill: none; stroke-dasharray: 3.7,1.6; stroke-dashoffset: 0; stroke: #ffffff"/>
     </g>
     <g id="text_4">
      <!-- $\mathdefault{1940}$ -->
      <g style="fill: #ffffff" transform="translate(217.037099 270.550347) scale(0.11 -0.11)">
       <defs>
        <path id="CMR17-34" d="M 2150 4122 
C 2150 4256 2144 4256 2029 4256 
L 128 1254 
L 128 1088 
L 1779 1088 
L 1779 457 
C 1779 224 1766 160 1318 160 
L 1197 160 
L 1197 0 
C 1402 0 1747 0 1965 0 
C 2182 0 2528 0 2733 0 
L 2733 160 
L 2611 160 
C 2163 160 2150 224 2150 457 
L 2150 1088 
L 2803 1088 
L 2803 1254 
L 2150 1254 
L 2150 4122 
z
M 1798 3703 
L 1798 1254 
L 256 1254 
L 1798 3703 
z
" transform="scale(0.015625)"/>
       </defs>
       <use xlink:href="#CMR17-31" transform="scale(0.996264)"/>
       <use xlink:href="#CMR17-39" transform="translate(45.690477 0) scale(0.996264)"/>
       <use xlink:href="#CMR17-34" transform="translate(91.380954 0) scale(0.996264)"/>
       <use xlink:href="#CMR17-30" transform="translate(137.071431 0) scale(0.996264)"/>
      </g>
     </g>
    </g>
    <g id="xtick_5">
     <g id="line2d_5">
      <path d="M 270.839008 253.44 
L 270.839008 5.76 
" clip-path="url(#p7f3d8c0a57)" style="fill: none; stroke-dasharray: 3.7,1.6; stroke-dashoffset: 0; stroke: #ffffff"/>
     </g>
     <g id="text_5">
      <!-- $\mathdefault{1960}$ -->
      <g style="fill: #ffffff" transform="translate(259.880074 270.550347) scale(0.11 -0.11)">
       <defs>
        <path id="CMR17-36" d="M 678 2176 
C 678 3690 1395 4032 1811 4032 
C 1946 4032 2272 4009 2400 3776 
C 2298 3776 2106 3776 2106 3553 
C 2106 3381 2246 3323 2336 3323 
C 2394 3323 2566 3348 2566 3560 
C 2566 3954 2246 4179 1805 4179 
C 1043 4179 243 3390 243 1984 
C 243 253 966 -128 1478 -128 
C 2099 -128 2688 427 2688 1283 
C 2688 2081 2170 2662 1517 2662 
C 1126 2662 838 2407 678 1960 
L 678 2176 
z
M 1478 25 
C 691 25 691 1200 691 1436 
C 691 1896 909 2560 1504 2560 
C 1613 2560 1926 2560 2138 2120 
C 2253 1870 2253 1609 2253 1289 
C 2253 944 2253 690 2118 434 
C 1978 171 1773 25 1478 25 
z
" transform="scale(0.015625)"/>
       </defs>
       <use xlink:href="#CMR17-31" transform="scale(0.996264)"/>
       <use xlink:href="#CMR17-39" transform="translate(45.690477 0) scale(0.996264)"/>
       <use xlink:href="#CMR17-36" transform="translate(91.380954 0) scale(0.996264)"/>
       <use xlink:href="#CMR17-30" transform="translate(137.071431 0) scale(0.996264)"/>
      </g>
     </g>
    </g>
    <g id="xtick_6">
     <g id="line2d_6">
      <path d="M 313.681983 253.44 
L 313.681983 5.76 
" clip-path="url(#p7f3d8c0a57)" style="fill: none; stroke-dasharray: 3.7,1.6; stroke-dashoffset: 0; stroke: #ffffff"/>
     </g>
     <g id="text_6">
      <!-- $\mathdefault{1980}$ -->
      <g style="fill: #ffffff" transform="translate(302.723049 270.550347) scale(0.11 -0.11)">
       <use xlink:href="#CMR17-31" transform="scale(0.996264)"/>
       <use xlink:href="#CMR17-39" transform="translate(45.690477 0) scale(0.996264)"/>
       <use xlink:href="#CMR17-38" transform="translate(91.380954 0) scale(0.996264)"/>
       <use xlink:href="#CMR17-30" transform="translate(137.071431 0) scale(0.996264)"/>
      </g>
     </g>
    </g>
    <g id="xtick_7">
     <g id="line2d_7">
      <path d="M 356.524959 253.44 
L 356.524959 5.76 
" clip-path="url(#p7f3d8c0a57)" style="fill: none; stroke-dasharray: 3.7,1.6; stroke-dashoffset: 0; stroke: #ffffff"/>
     </g>
     <g id="text_7">
      <!-- $\mathdefault{2000}$ -->
      <g style="fill: #ffffff" transform="translate(345.566024 270.550347) scale(0.11 -0.11)">
       <use xlink:href="#CMR17-32" transform="scale(0.996264)"/>
       <use xlink:href="#CMR17-30" transform="translate(45.690477 0) scale(0.996264)"/>
       <use xlink:href="#CMR17-30" transform="translate(91.380954 0) scale(0.996264)"/>
       <use xlink:href="#CMR17-30" transform="translate(137.071431 0) scale(0.996264)"/>
      </g>
     </g>
    </g>
    <g id="xtick_8">
     <g id="line2d_8">
      <path d="M 399.367934 253.44 
L 399.367934 5.76 
" clip-path="url(#p7f3d8c0a57)" style="fill: none; stroke-dasharray: 3.7,1.6; stroke-dashoffset: 0; stroke: #ffffff"/>
     </g>
     <g id="text_8">
      <!-- $\mathdefault{2020}$ -->
      <g style="fill: #ffffff" transform="translate(388.408999 270.550347) scale(0.11 -0.11)">
       <use xlink:href="#CMR17-32" transform="scale(0.996264)"/>
       <use xlink:href="#CMR17-30" transform="translate(45.690477 0) scale(0.996264)"/>
       <use xlink:href="#CMR17-32" transform="translate(91.380954 0) scale(0.996264)"/>
       <use xlink:href="#CMR17-30" transform="translate(137.071431 0) scale(0.996264)"/>
      </g>
     </g>
    </g>
    <g id="text_9">
     <!-- Year -->
     <g style="fill: #ffffff" transform="translate(230.216095 284.983421) scale(0.12 -0.12)">
      <defs>
       <path id="CMR17-59" d="M 3706 3766 
C 3955 4160 4301 4160 4416 4160 
L 4416 4332 
C 4269 4319 4102 4319 3942 4319 
C 3782 4319 3526 4319 3373 4332 
L 3373 4160 
C 3533 4160 3616 4077 3616 3957 
C 3616 3881 3584 3830 3533 3747 
L 2381 1912 
L 1120 3912 
C 1075 3988 1069 3994 1069 4039 
C 1069 4160 1293 4160 1382 4160 
L 1382 4319 
C 1178 4319 864 4319 653 4319 
C 486 4319 166 4319 13 4332 
L 13 4160 
C 378 4160 480 4141 595 3958 
L 2010 1728 
L 2010 445 
C 2010 160 1939 160 1498 160 
L 1498 0 
C 1683 0 2016 0 2214 0 
C 2413 0 2752 0 2938 0 
L 2938 160 
C 2477 160 2419 160 2419 471 
L 2419 1728 
L 3706 3766 
z
" transform="scale(0.015625)"/>
       <path id="CMR17-65" d="M 2438 1472 
C 2464 1498 2464 1511 2464 1576 
C 2464 2238 2118 2816 1389 2816 
C 710 2816 173 2169 173 1383 
C 173 551 781 -64 1459 -64 
C 2176 -64 2458 607 2458 740 
C 2458 784 2419 784 2406 784 
C 2362 784 2355 771 2330 696 
C 2189 265 1837 51 1504 51 
C 1229 51 954 203 781 480 
C 582 803 582 1176 582 1472 
L 2438 1472 
z
M 589 1568 
C 634 2505 1126 2714 1382 2714 
C 1818 2714 2112 2297 2118 1568 
L 589 1568 
z
" transform="scale(0.015625)"/>
       <path id="CMR17-61" d="M 2304 1653 
C 2304 2072 2304 2294 2035 2543 
C 1798 2752 1523 2816 1306 2816 
C 800 2816 435 2407 435 1971 
C 435 1728 627 1728 666 1728 
C 749 1728 896 1778 896 1954 
C 896 2112 774 2181 666 2181 
C 640 2181 608 2174 589 2168 
C 723 2592 1069 2714 1293 2714 
C 1613 2714 1965 2429 1965 1885 
L 1965 1600 
C 1587 1600 1133 1549 774 1357 
C 371 1133 256 813 256 570 
C 256 77 832 -64 1171 -64 
C 1523 -64 1850 139 1990 511 
C 2003 233 2182 -18 2464 -18 
C 2598 -18 2938 70 2938 567 
L 2938 920 
L 2822 920 
L 2822 562 
C 2822 178 2650 128 2566 128 
C 2304 128 2304 458 2304 738 
L 2304 1653 
z
M 1965 870 
C 1965 317 1568 38 1216 38 
C 896 38 646 275 646 570 
C 646 761 730 1100 1101 1305 
C 1408 1478 1760 1504 1965 1504 
L 1965 870 
z
" transform="scale(0.015625)"/>
       <path id="CMR17-72" d="M 960 1497 
C 960 2112 1222 2688 1702 2688 
C 1747 2688 1792 2682 1837 2662 
C 1837 2662 1696 2617 1696 2452 
C 1696 2298 1818 2234 1914 2234 
C 1990 2234 2131 2279 2131 2458 
C 2131 2663 1926 2790 1709 2790 
C 1222 2790 1011 2317 947 2093 
L 941 2093 
L 941 2790 
L 198 2720 
L 198 2554 
C 576 2554 634 2515 634 2208 
L 634 428 
C 634 184 608 153 198 153 
L 198 -13 
C 352 0 646 0 813 0 
C 998 0 1325 0 1498 -13 
L 1498 153 
C 1037 153 960 153 960 440 
L 960 1497 
z
" transform="scale(0.015625)"/>
      </defs>
      <use xlink:href="#CMR17-59" transform="scale(0.996264)"/>
      <use xlink:href="#CMR17-65" transform="translate(61.265174 0) scale(0.996264)"/>
      <use xlink:href="#CMR17-61" transform="translate(101.750835 0) scale(0.996264)"/>
      <use xlink:href="#CMR17-72" transform="translate(147.441312 0) scale(0.996264)"/>
     </g>
    </g>
   </g>
   <g id="matplotlib.axis_2">
    <g id="ytick_1">
     <g id="line2d_9">
      <path d="M 60.48 253.44 
L 423.36 253.44 
" clip-path="url(#p7f3d8c0a57)" style="fill: none; stroke-dasharray: 3.7,1.6; stroke-dashoffset: 0; stroke: #ffffff"/>
     </g>
     <g id="text_10">
      <!-- $\mathdefault{0}$ -->
      <g style="fill: #ffffff" transform="translate(45.500533 257.245173) scale(0.11 -0.11)">
       <use xlink:href="#CMR17-30" transform="scale(0.996264)"/>
      </g>
     </g>
    </g>
    <g id="ytick_2">
     <g id="line2d_10">
      <path d="M 60.48 219.426885 
L 423.36 219.426885 
" clip-path="url(#p7f3d8c0a57)" style="fill: none; stroke-dasharray: 3.7,1.6; stroke-dashoffset: 0; stroke: #ffffff"/>
     </g>
     <g id="text_11">
      <!-- $\mathdefault{50000}$ -->
      <g style="fill: #ffffff" transform="translate(23.582664 223.232058) scale(0.11 -0.11)">
       <defs>
        <path id="CMR17-35" d="M 730 3692 
C 794 3666 1056 3584 1325 3584 
C 1920 3584 2246 3911 2432 4100 
C 2432 4157 2432 4192 2394 4192 
C 2387 4192 2374 4192 2323 4163 
C 2099 4058 1837 3973 1517 3973 
C 1325 3973 1037 3999 723 4139 
C 653 4171 640 4171 634 4171 
C 602 4171 595 4164 595 4037 
L 595 2203 
C 595 2089 595 2057 659 2057 
C 691 2057 704 2070 736 2114 
C 941 2401 1222 2522 1542 2522 
C 1766 2522 2246 2382 2246 1289 
C 2246 1085 2246 715 2054 421 
C 1894 159 1645 25 1370 25 
C 947 25 518 320 403 814 
C 429 807 480 795 506 795 
C 589 795 749 840 749 1038 
C 749 1210 627 1280 506 1280 
C 358 1280 262 1190 262 1011 
C 262 454 704 -128 1382 -128 
C 2042 -128 2669 440 2669 1264 
C 2669 2030 2170 2624 1549 2624 
C 1222 2624 947 2503 730 2274 
L 730 3692 
z
" transform="scale(0.015625)"/>
       </defs>
       <use xlink:href="#CMR17-35" transform="scale(0.996264)"/>
       <use xlink:href="#CMR17-30" transform="translate(45.690477 0) scale(0.996264)"/>
       <use xlink:href="#CMR17-30" transform="translate(91.380954 0) scale(0.996264)"/>
       <use xlink:href="#CMR17-30" transform="translate(137.071431 0) scale(0.996264)"/>
       <use xlink:href="#CMR17-30" transform="translate(182.761908 0) scale(0.996264)"/>
      </g>
     </g>
    </g>
    <g id="ytick_3">
     <g id="line2d_11">
      <path d="M 60.48 185.41377 
L 423.36 185.41377 
" clip-path="url(#p7f3d8c0a57)" style="fill: none; stroke-dasharray: 3.7,1.6; stroke-dashoffset: 0; stroke: #ffffff"/>
     </g>
     <g id="text_12">
      <!-- $\mathdefault{100000}$ -->
      <g style="fill: #ffffff" transform="translate(18.103196 189.218943) scale(0.11 -0.11)">
       <use xlink:href="#CMR17-31" transform="scale(0.996264)"/>
       <use xlink:href="#CMR17-30" transform="translate(45.690477 0) scale(0.996264)"/>
       <use xlink:href="#CMR17-30" transform="translate(91.380954 0) scale(0.996264)"/>
       <use xlink:href="#CMR17-30" transform="translate(137.071431 0) scale(0.996264)"/>
       <use xlink:href="#CMR17-30" transform="translate(182.761908 0) scale(0.996264)"/>
       <use xlink:href="#CMR17-30" transform="translate(228.452386 0) scale(0.996264)"/>
      </g>
     </g>
    </g>
    <g id="ytick_4">
     <g id="line2d_12">
      <path d="M 60.48 151.400655 
L 423.36 151.400655 
" clip-path="url(#p7f3d8c0a57)" style="fill: none; stroke-dasharray: 3.7,1.6; stroke-dashoffset: 0; stroke: #ffffff"/>
     </g>
     <g id="text_13">
      <!-- $\mathdefault{150000}$ -->
      <g style="fill: #ffffff" transform="translate(18.103196 155.205828) scale(0.11 -0.11)">
       <use xlink:href="#CMR17-31" transform="scale(0.996264)"/>
       <use xlink:href="#CMR17-35" transform="translate(45.690477 0) scale(0.996264)"/>
       <use xlink:href="#CMR17-30" transform="translate(91.380954 0) scale(0.996264)"/>
       <use xlink:href="#CMR17-30" transform="translate(137.071431 0) scale(0.996264)"/>
       <use xlink:href="#CMR17-30" transform="translate(182.761908 0) scale(0.996264)"/>
       <use xlink:href="#CMR17-30" transform="translate(228.452386 0) scale(0.996264)"/>
      </g>
     </g>
    </g>
    <g id="ytick_5">
     <g id="line2d_13">
      <path d="M 60.48 117.38754 
L 423.36 117.38754 
" clip-path="url(#p7f3d8c0a57)" style="fill: none; stroke-dasharray: 3.7,1.6; stroke-dashoffset: 0; stroke: #ffffff"/>
     </g>
     <g id="text_14">
      <!-- $\mathdefault{200000}$ -->
      <g style="fill: #ffffff" transform="translate(18.103196 121.192713) scale(0.11 -0.11)">
       <use xlink:href="#CMR17-32" transform="scale(0.996264)"/>
       <use xlink:href="#CMR17-30" transform="translate(45.690477 0) scale(0.996264)"/>
       <use xlink:href="#CMR17-30" transform="translate(91.380954 0) scale(0.996264)"/>
       <use xlink:href="#CMR17-30" transform="translate(137.071431 0) scale(0.996264)"/>
       <use xlink:href="#CMR17-30" transform="translate(182.761908 0) scale(0.996264)"/>
       <use xlink:href="#CMR17-30" transform="translate(228.452386 0) scale(0.996264)"/>
      </g>
     </g>
    </g>
    <g id="ytick_6">
     <g id="line2d_14">
      <path d="M 60.48 83.374425 
L 423.36 83.374425 
" clip-path="url(#p7f3d8c0a57)" style="fill: none; stroke-dasharray: 3.7,1.6; stroke-dashoffset: 0; stroke: #ffffff"/>
     </g>
     <g id="text_15">
      <!-- $\mathdefault{250000}$ -->
      <g style="fill: #ffffff" transform="translate(18.103196 87.179598) scale(0.11 -0.11)">
       <use xlink:href="#CMR17-32" transform="scale(0.996264)"/>
       <use xlink:href="#CMR17-35" transform="translate(45.690477 0) scale(0.996264)"/>
       <use xlink:href="#CMR17-30" transform="translate(91.380954 0) scale(0.996264)"/>
       <use xlink:href="#CMR17-30" transform="translate(137.071431 0) scale(0.996264)"/>
       <use xlink:href="#CMR17-30" transform="translate(182.761908 0) scale(0.996264)"/>
       <use xlink:href="#CMR17-30" transform="translate(228.452386 0) scale(0.996264)"/>
      </g>
     </g>
    </g>
    <g id="ytick_7">
     <g id="line2d_15">
      <path d="M 60.48 49.36131 
L 423.36 49.36131 
" clip-path="url(#p7f3d8c0a57)" style="fill: none; stroke-dasharray: 3.7,1.6; stroke-dashoffset: 0; stroke: #ffffff"/>
     </g>
     <g id="text_16">
      <!-- $\mathdefault{300000}$ -->
      <g style="fill: #ffffff" transform="translate(18.103196 53.166483) scale(0.11 -0.11)">
       <defs>
        <path id="CMR17-33" d="M 1414 2157 
C 1984 2157 2234 1662 2234 1090 
C 2234 320 1824 25 1453 25 
C 1114 25 563 194 390 693 
C 422 680 454 680 486 680 
C 640 680 755 782 755 948 
C 755 1133 614 1216 486 1216 
C 378 1216 211 1165 211 926 
C 211 335 787 -128 1466 -128 
C 2176 -128 2720 430 2720 1085 
C 2720 1707 2208 2157 1600 2227 
C 2086 2328 2554 2756 2554 3329 
C 2554 3820 2048 4179 1472 4179 
C 890 4179 378 3829 378 3329 
C 378 3110 544 3072 627 3072 
C 762 3072 877 3155 877 3321 
C 877 3486 762 3569 627 3569 
C 602 3569 570 3569 544 3557 
C 730 3959 1235 4032 1459 4032 
C 1683 4032 2106 3925 2106 3320 
C 2106 3143 2080 2828 1862 2550 
C 1670 2304 1453 2304 1242 2284 
C 1210 2284 1062 2269 1037 2269 
C 992 2263 966 2257 966 2208 
C 966 2163 973 2157 1101 2157 
L 1414 2157 
z
" transform="scale(0.015625)"/>
       </defs>
       <use xlink:href="#CMR17-33" transform="scale(0.996264)"/>
       <use xlink:href="#CMR17-30" transform="translate(45.690477 0) scale(0.996264)"/>
       <use xlink:href="#CMR17-30" transform="translate(91.380954 0) scale(0.996264)"/>
       <use xlink:href="#CMR17-30" transform="translate(137.071431 0) scale(0.996264)"/>
       <use xlink:href="#CMR17-30" transform="translate(182.761908 0) scale(0.996264)"/>
       <use xlink:href="#CMR17-30" transform="translate(228.452386 0) scale(0.996264)"/>
      </g>
     </g>
    </g>
    <g id="ytick_8">
     <g id="line2d_16">
      <path d="M 60.48 15.348195 
L 423.36 15.348195 
" clip-path="url(#p7f3d8c0a57)" style="fill: none; stroke-dasharray: 3.7,1.6; stroke-dashoffset: 0; stroke: #ffffff"/>
     </g>
     <g id="text_17">
      <!-- $\mathdefault{350000}$ -->
      <g style="fill: #ffffff" transform="translate(18.103196 19.153368) scale(0.11 -0.11)">
       <use xlink:href="#CMR17-33" transform="scale(0.996264)"/>
       <use xlink:href="#CMR17-35" transform="translate(45.690477 0) scale(0.996264)"/>
       <use xlink:href="#CMR17-30" transform="translate(91.380954 0) scale(0.996264)"/>
       <use xlink:href="#CMR17-30" transform="translate(137.071431 0) scale(0.996264)"/>
       <use xlink:href="#CMR17-30" transform="translate(182.761908 0) scale(0.996264)"/>
       <use xlink:href="#CMR17-30" transform="translate(228.452386 0) scale(0.996264)"/>
      </g>
     </g>
    </g>
    <g id="text_18">
     <!-- Number -->
     <g style="fill: #ffffff" transform="translate(11.778601 150.245974) rotate(-90) scale(0.12 -0.12)">
      <defs>
       <path id="CMR17-4e" d="M 1312 4250 
C 1267 4320 1261 4320 1139 4320 
L 326 4320 
L 326 4160 
L 448 4160 
C 704 4160 819 4129 838 4122 
L 838 610 
C 838 451 838 153 326 153 
L 326 -13 
C 474 0 742 0 902 0 
C 1062 0 1331 0 1478 -13 
L 1478 153 
C 966 153 966 451 966 610 
L 966 4033 
C 1011 3995 1011 3982 1056 3919 
L 3430 76 
C 3475 0 3494 0 3526 0 
C 3590 0 3590 19 3590 139 
L 3590 3705 
C 3590 3863 3590 4160 4102 4160 
L 4102 4326 
C 3955 4320 3686 4320 3526 4320 
C 3366 4320 3098 4320 2950 4326 
L 2950 4160 
C 3462 4160 3462 3862 3462 3703 
L 3462 763 
L 1312 4250 
z
" transform="scale(0.015625)"/>
       <path id="CMR17-75" d="M 1882 2693 
L 1882 2528 
C 2259 2528 2317 2489 2317 2186 
L 2317 1032 
C 2317 500 2029 38 1555 38 
C 1030 38 986 348 986 678 
L 986 2763 
L 211 2693 
L 211 2528 
C 467 2528 640 2528 646 2274 
L 646 1058 
C 646 633 646 361 813 183 
C 896 101 1056 -64 1517 -64 
C 2061 -64 2272 377 2323 506 
L 2330 506 
L 2330 -63 
L 3091 -63 
L 3091 128 
C 2714 128 2656 166 2656 473 
L 2656 2763 
L 1882 2693 
z
" transform="scale(0.015625)"/>
       <path id="CMR17-6d" d="M 4326 1933 
C 4326 2252 4269 2790 3507 2790 
C 3072 2790 2771 2496 2656 2151 
L 2650 2151 
C 2573 2676 2195 2790 1837 2790 
C 1331 2790 1069 2400 973 2144 
L 966 2144 
L 966 2790 
L 211 2720 
L 211 2554 
C 589 2554 646 2515 646 2208 
L 646 428 
C 646 184 621 153 211 153 
L 211 -13 
C 365 0 646 0 813 0 
C 979 0 1267 0 1421 -13 
L 1421 153 
C 1011 153 986 178 986 428 
L 986 1658 
C 986 2247 1344 2688 1792 2688 
C 2266 2688 2317 2266 2317 1958 
L 2317 428 
C 2317 184 2291 153 1882 153 
L 1882 -13 
C 2035 0 2317 0 2483 0 
C 2650 0 2938 0 3091 -13 
L 3091 153 
C 2682 153 2656 178 2656 428 
L 2656 1658 
C 2656 2247 3014 2688 3462 2688 
C 3936 2688 3987 2266 3987 1958 
L 3987 428 
C 3987 184 3962 153 3552 153 
L 3552 -13 
C 3706 0 3987 0 4154 0 
C 4320 0 4608 0 4762 -13 
L 4762 153 
C 4352 153 4326 178 4326 428 
L 4326 1933 
z
" transform="scale(0.015625)"/>
       <path id="CMR17-62" d="M 960 4396 
L 198 4326 
L 198 4160 
C 576 4160 634 4122 634 3817 
L 634 -13 
L 749 -13 
L 934 441 
C 1120 141 1395 -64 1766 -64 
C 2406 -64 3053 500 3053 1370 
C 3053 2188 2477 2790 1830 2790 
C 1434 2790 1152 2579 960 2330 
L 960 4396 
z
M 973 2004 
C 973 2118 973 2138 1062 2272 
C 1312 2657 1670 2688 1792 2688 
C 1984 2688 2643 2585 2643 1376 
C 2643 108 1888 38 1734 38 
C 1536 38 1248 114 1043 486 
C 973 608 973 621 973 735 
L 973 2004 
z
" transform="scale(0.015625)"/>
      </defs>
      <use xlink:href="#CMR17-4e" transform="scale(0.996264)"/>
      <use xlink:href="#CMR17-75" transform="translate(69.07243 0) scale(0.996264)"/>
      <use xlink:href="#CMR17-6d" transform="translate(119.9678 0) scale(0.996264)"/>
      <use xlink:href="#CMR17-62" transform="translate(194.284936 0) scale(0.996264)"/>
      <use xlink:href="#CMR17-65" transform="translate(247.782744 0) scale(0.996264)"/>
      <use xlink:href="#CMR17-72" transform="translate(288.268404 0) scale(0.996264)"/>
     </g>
    </g>
   </g>
   <g id="patch_3">
    <path d="M 76.974545 253.44 
L 79.116694 253.44 
L 79.116694 253.43932 
L 76.974545 253.43932 
z
" clip-path="url(#p7f3d8c0a57)" style="fill: #555599; stroke: #ffffff; stroke-linejoin: miter"/>
   </g>
   <g id="patch_4">
    <path d="M 81.258843 253.44 
L 83.400992 253.44 
L 83.400992 253.43932 
L 81.258843 253.43932 
z
" clip-path="url(#p7f3d8c0a57)" style="fill: #555599; stroke: #ffffff; stroke-linejoin: miter"/>
   </g>
   <g id="patch_5">
    <path d="M 83.400992 253.44 
L 85.54314 253.44 
L 85.54314 253.43932 
L 83.400992 253.43932 
z
" clip-path="url(#p7f3d8c0a57)" style="fill: #555599; stroke: #ffffff; stroke-linejoin: miter"/>
   </g>
   <g id="patch_6">
    <path d="M 85.54314 253.44 
L 87.685289 253.44 
L 87.685289 253.438639 
L 85.54314 253.438639 
z
" clip-path="url(#p7f3d8c0a57)" style="fill: #555599; stroke: #ffffff; stroke-linejoin: miter"/>
   </g>
   <g id="patch_7">
    <path d="M 87.685289 253.44 
L 89.827438 253.44 
L 89.827438 253.435238 
L 87.685289 253.435238 
z
" clip-path="url(#p7f3d8c0a57)" style="fill: #555599; stroke: #ffffff; stroke-linejoin: miter"/>
   </g>
   <g id="patch_8">
    <path d="M 89.827438 253.44 
L 91.969587 253.44 
L 91.969587 253.437279 
L 89.827438 253.437279 
z
" clip-path="url(#p7f3d8c0a57)" style="fill: #555599; stroke: #ffffff; stroke-linejoin: miter"/>
   </g>
   <g id="patch_9">
    <path d="M 91.969587 253.44 
L 94.111736 253.44 
L 94.111736 253.432517 
L 91.969587 253.432517 
z
" clip-path="url(#p7f3d8c0a57)" style="fill: #555599; stroke: #ffffff; stroke-linejoin: miter"/>
   </g>
   <g id="patch_10">
    <path d="M 94.111736 253.44 
L 96.253884 253.44 
L 96.253884 253.429796 
L 94.111736 253.429796 
z
" clip-path="url(#p7f3d8c0a57)" style="fill: #555599; stroke: #ffffff; stroke-linejoin: miter"/>
   </g>
   <g id="patch_11">
    <path d="M 96.253884 253.44 
L 98.396033 253.44 
L 98.396033 253.417551 
L 96.253884 253.417551 
z
" clip-path="url(#p7f3d8c0a57)" style="fill: #555599; stroke: #ffffff; stroke-linejoin: miter"/>
   </g>
   <g id="patch_12">
    <path d="M 98.396033 253.44 
L 100.538182 253.44 
L 100.538182 253.408708 
L 98.396033 253.408708 
z
" clip-path="url(#p7f3d8c0a57)" style="fill: #555599; stroke: #ffffff; stroke-linejoin: miter"/>
   </g>
   <g id="patch_13">
    <path d="M 100.538182 253.44 
L 102.680331 253.44 
L 102.680331 253.382178 
L 100.538182 253.382178 
z
" clip-path="url(#p7f3d8c0a57)" style="fill: #555599; stroke: #ffffff; stroke-linejoin: miter"/>
   </g>
   <g id="patch_14">
    <path d="M 102.680331 253.44 
L 104.822479 253.44 
L 104.822479 253.346804 
L 102.680331 253.346804 
z
" clip-path="url(#p7f3d8c0a57)" style="fill: #555599; stroke: #ffffff; stroke-linejoin: miter"/>
   </g>
   <g id="patch_15">
    <path d="M 104.822479 253.44 
L 106.964628 253.44 
L 106.964628 253.272655 
L 104.822479 253.272655 
z
" clip-path="url(#p7f3d8c0a57)" style="fill: #555599; stroke: #ffffff; stroke-linejoin: miter"/>
   </g>
   <g id="patch_16">
    <path d="M 106.964628 253.44 
L 109.106777 253.44 
L 109.106777 253.168575 
L 106.964628 253.168575 
z
" clip-path="url(#p7f3d8c0a57)" style="fill: #555599; stroke: #ffffff; stroke-linejoin: miter"/>
   </g>
   <g id="patch_17">
    <path d="M 109.106777 253.44 
L 111.248926 253.44 
L 111.248926 252.992387 
L 109.106777 252.992387 
z
" clip-path="url(#p7f3d8c0a57)" style="fill: #555599; stroke: #ffffff; stroke-linejoin: miter"/>
   </g>
   <g id="patch_18">
    <path d="M 111.248926 253.44 
L 113.391074 253.44 
L 113.391074 252.625726 
L 111.248926 252.625726 
z
" clip-path="url(#p7f3d8c0a57)" style="fill: #555599; stroke: #ffffff; stroke-linejoin: miter"/>
   </g>
   <g id="patch_19">
    <path d="M 113.391074 253.44 
L 115.533223 253.44 
L 115.533223 252.185596 
L 113.391074 252.185596 
z
" clip-path="url(#p7f3d8c0a57)" style="fill: #555599; stroke: #ffffff; stroke-linejoin: miter"/>
   </g>
   <g id="patch_20">
    <path d="M 115.533223 253.44 
L 117.675372 253.44 
L 117.675372 251.426424 
L 115.533223 251.426424 
z
" clip-path="url(#p7f3d8c0a57)" style="fill: #555599; stroke: #ffffff; stroke-linejoin: miter"/>
   </g>
   <g id="patch_21">
    <path d="M 117.675372 253.44 
L 119.817521 253.44 
L 119.817521 250.417595 
L 117.675372 250.417595 
z
" clip-path="url(#p7f3d8c0a57)" style="fill: #555599; stroke: #ffffff; stroke-linejoin: miter"/>
   </g>
   <g id="patch_22">
    <path d="M 119.817521 253.44 
L 121.959669 253.44 
L 121.959669 249.180197 
L 119.817521 249.180197 
z
" clip-path="url(#p7f3d8c0a57)" style="fill: #555599; stroke: #ffffff; stroke-linejoin: miter"/>
   </g>
   <g id="patch_23">
    <path d="M 121.959669 253.44 
L 124.101818 253.44 
L 124.101818 169.635766 
L 121.959669 169.635766 
z
" clip-path="url(#p7f3d8c0a57)" style="fill: #555599; stroke: #ffffff; stroke-linejoin: miter"/>
   </g>
   <g id="patch_24">
    <path d="M 124.101818 253.44 
L 126.243967 253.44 
L 126.243967 164.714749 
L 124.101818 164.714749 
z
" clip-path="url(#p7f3d8c0a57)" style="fill: #555599; stroke: #ffffff; stroke-linejoin: miter"/>
   </g>
   <g id="patch_25">
    <path d="M 126.243967 253.44 
L 128.386116 253.44 
L 128.386116 152.574788 
L 126.243967 152.574788 
z
" clip-path="url(#p7f3d8c0a57)" style="fill: #555599; stroke: #ffffff; stroke-linejoin: miter"/>
   </g>
   <g id="patch_26">
    <path d="M 128.386116 253.44 
L 130.528264 253.44 
L 130.528264 145.676928 
L 128.386116 145.676928 
z
" clip-path="url(#p7f3d8c0a57)" style="fill: #555599; stroke: #ffffff; stroke-linejoin: miter"/>
   </g>
   <g id="patch_27">
    <path d="M 130.528264 253.44 
L 132.670413 253.44 
L 132.670413 142.308269 
L 130.528264 142.308269 
z
" clip-path="url(#p7f3d8c0a57)" style="fill: #555599; stroke: #ffffff; stroke-linejoin: miter"/>
   </g>
   <g id="patch_28">
    <path d="M 132.670413 253.44 
L 134.812562 253.44 
L 134.812562 128.198269 
L 132.670413 128.198269 
z
" clip-path="url(#p7f3d8c0a57)" style="fill: #555599; stroke: #ffffff; stroke-linejoin: miter"/>
   </g>
   <g id="patch_29">
    <path d="M 134.812562 253.44 
L 136.954711 253.44 
L 136.954711 122.44461 
L 134.812562 122.44461 
z
" clip-path="url(#p7f3d8c0a57)" style="fill: #555599; stroke: #ffffff; stroke-linejoin: miter"/>
   </g>
   <g id="patch_30">
    <path d="M 136.954711 253.44 
L 139.09686 253.44 
L 139.09686 119.749411 
L 136.954711 119.749411 
z
" clip-path="url(#p7f3d8c0a57)" style="fill: #555599; stroke: #ffffff; stroke-linejoin: miter"/>
   </g>
   <g id="patch_31">
    <path d="M 139.09686 253.44 
L 141.239008 253.44 
L 141.239008 110.579475 
L 139.09686 110.579475 
z
" clip-path="url(#p7f3d8c0a57)" style="fill: #555599; stroke: #ffffff; stroke-linejoin: miter"/>
   </g>
   <g id="patch_32">
    <path d="M 141.239008 253.44 
L 143.381157 253.44 
L 143.381157 105.489752 
L 141.239008 105.489752 
z
" clip-path="url(#p7f3d8c0a57)" style="fill: #555599; stroke: #ffffff; stroke-linejoin: miter"/>
   </g>
   <g id="patch_33">
    <path d="M 143.381157 253.44 
L 145.523306 253.44 
L 145.523306 90.483846 
L 143.381157 90.483846 
z
" clip-path="url(#p7f3d8c0a57)" style="fill: #555599; stroke: #ffffff; stroke-linejoin: miter"/>
   </g>
   <g id="patch_34">
    <path d="M 145.523306 253.44 
L 147.665455 253.44 
L 147.665455 86.108399 
L 145.523306 86.108399 
z
" clip-path="url(#p7f3d8c0a57)" style="fill: #555599; stroke: #ffffff; stroke-linejoin: miter"/>
   </g>
   <g id="patch_35">
    <path d="M 147.665455 253.44 
L 149.807603 253.44 
L 149.807603 84.220671 
L 147.665455 84.220671 
z
" clip-path="url(#p7f3d8c0a57)" style="fill: #555599; stroke: #ffffff; stroke-linejoin: miter"/>
   </g>
   <g id="patch_36">
    <path d="M 149.807603 253.44 
L 151.949752 253.44 
L 151.949752 80.052704 
L 149.807603 80.052704 
z
" clip-path="url(#p7f3d8c0a57)" style="fill: #555599; stroke: #ffffff; stroke-linejoin: miter"/>
   </g>
   <g id="patch_37">
    <path d="M 151.949752 253.44 
L 154.091901 253.44 
L 154.091901 76.616019 
L 151.949752 76.616019 
z
" clip-path="url(#p7f3d8c0a57)" style="fill: #555599; stroke: #ffffff; stroke-linejoin: miter"/>
   </g>
   <g id="patch_38">
    <path d="M 154.091901 253.44 
L 156.23405 253.44 
L 156.23405 71.265756 
L 154.091901 71.265756 
z
" clip-path="url(#p7f3d8c0a57)" style="fill: #555599; stroke: #ffffff; stroke-linejoin: miter"/>
   </g>
   <g id="patch_39">
    <path d="M 156.23405 253.44 
L 158.376198 253.44 
L 158.376198 71.204533 
L 156.23405 71.204533 
z
" clip-path="url(#p7f3d8c0a57)" style="fill: #555599; stroke: #ffffff; stroke-linejoin: miter"/>
   </g>
   <g id="patch_40">
    <path d="M 158.376198 253.44 
L 160.518347 253.44 
L 160.518347 61.7312 
L 158.376198 61.7312 
z
" clip-path="url(#p7f3d8c0a57)" style="fill: #555599; stroke: #ffffff; stroke-linejoin: miter"/>
   </g>
   <g id="patch_41">
    <path d="M 160.518347 253.44 
L 162.660496 253.44 
L 162.660496 61.152297 
L 160.518347 61.152297 
z
" clip-path="url(#p7f3d8c0a57)" style="fill: #555599; stroke: #ffffff; stroke-linejoin: miter"/>
   </g>
   <g id="patch_42">
    <path d="M 162.660496 253.44 
L 164.802645 253.44 
L 164.802645 58.106762 
L 162.660496 58.106762 
z
" clip-path="url(#p7f3d8c0a57)" style="fill: #555599; stroke: #ffffff; stroke-linejoin: miter"/>
   </g>
   <g id="patch_43">
    <path d="M 164.802645 253.44 
L 166.944793 253.44 
L 166.944793 65.267883 
L 164.802645 65.267883 
z
" clip-path="url(#p7f3d8c0a57)" style="fill: #555599; stroke: #ffffff; stroke-linejoin: miter"/>
   </g>
   <g id="patch_44">
    <path d="M 166.944793 253.44 
L 169.086942 253.44 
L 169.086942 53.48574 
L 166.944793 53.48574 
z
" clip-path="url(#p7f3d8c0a57)" style="fill: #555599; stroke: #ffffff; stroke-linejoin: miter"/>
   </g>
   <g id="patch_45">
    <path d="M 169.086942 253.44 
L 171.229091 253.44 
L 171.229091 53.185064 
L 169.086942 53.185064 
z
" clip-path="url(#p7f3d8c0a57)" style="fill: #555599; stroke: #ffffff; stroke-linejoin: miter"/>
   </g>
   <g id="patch_46">
    <path d="M 171.229091 253.44 
L 173.37124 253.44 
L 173.37124 54.332667 
L 171.229091 54.332667 
z
" clip-path="url(#p7f3d8c0a57)" style="fill: #555599; stroke: #ffffff; stroke-linejoin: miter"/>
   </g>
   <g id="patch_47">
    <path d="M 173.37124 253.44 
L 175.513388 253.44 
L 175.513388 120.948033 
L 173.37124 120.948033 
z
" clip-path="url(#p7f3d8c0a57)" style="fill: #555599; stroke: #ffffff; stroke-linejoin: miter"/>
   </g>
   <g id="patch_48">
    <path d="M 175.513388 253.44 
L 177.655537 253.44 
L 177.655537 147.643566 
L 175.513388 147.643566 
z
" clip-path="url(#p7f3d8c0a57)" style="fill: #555599; stroke: #ffffff; stroke-linejoin: miter"/>
   </g>
   <g id="patch_49">
    <path d="M 177.655537 253.44 
L 179.797686 253.44 
L 179.797686 140.340951 
L 177.655537 140.340951 
z
" clip-path="url(#p7f3d8c0a57)" style="fill: #555599; stroke: #ffffff; stroke-linejoin: miter"/>
   </g>
   <g id="patch_50">
    <path d="M 179.797686 253.44 
L 181.939835 253.44 
L 181.939835 126.339112 
L 179.797686 126.339112 
z
" clip-path="url(#p7f3d8c0a57)" style="fill: #555599; stroke: #ffffff; stroke-linejoin: miter"/>
   </g>
   <g id="patch_51">
    <path d="M 181.939835 253.44 
L 184.081983 253.44 
L 184.081983 110.344784 
L 181.939835 110.344784 
z
" clip-path="url(#p7f3d8c0a57)" style="fill: #555599; stroke: #ffffff; stroke-linejoin: miter"/>
   </g>
   <g id="patch_52">
    <path d="M 184.081983 253.44 
L 186.224132 253.44 
L 186.224132 17.554286 
L 184.081983 17.554286 
z
" clip-path="url(#p7f3d8c0a57)" style="fill: #555599; stroke: #ffffff; stroke-linejoin: miter"/>
   </g>
   <g id="patch_53">
    <path d="M 186.224132 253.44 
L 188.366281 253.44 
L 188.366281 21.554908 
L 186.224132 21.554908 
z
" clip-path="url(#p7f3d8c0a57)" style="fill: #555599; stroke: #ffffff; stroke-linejoin: miter"/>
   </g>
   <g id="patch_54">
    <path d="M 188.366281 253.44 
L 190.50843 253.44 
L 190.50843 30.420087 
L 188.366281 30.420087 
z
" clip-path="url(#p7f3d8c0a57)" style="fill: #555599; stroke: #ffffff; stroke-linejoin: miter"/>
   </g>
   <g id="patch_55">
    <path d="M 190.50843 253.44 
L 192.650579 253.44 
L 192.650579 33.511879 
L 190.50843 33.511879 
z
" clip-path="url(#p7f3d8c0a57)" style="fill: #555599; stroke: #ffffff; stroke-linejoin: miter"/>
   </g>
   <g id="patch_56">
    <path d="M 192.650579 253.44 
L 194.792727 253.44 
L 194.792727 38.020657 
L 192.650579 38.020657 
z
" clip-path="url(#p7f3d8c0a57)" style="fill: #555599; stroke: #ffffff; stroke-linejoin: miter"/>
   </g>
   <g id="patch_57">
    <path d="M 194.792727 253.44 
L 196.934876 253.44 
L 196.934876 38.455345 
L 194.792727 38.455345 
z
" clip-path="url(#p7f3d8c0a57)" style="fill: #555599; stroke: #ffffff; stroke-linejoin: miter"/>
   </g>
   <g id="patch_58">
    <path d="M 196.934876 253.44 
L 199.077025 253.44 
L 199.077025 44.321927 
L 196.934876 44.321927 
z
" clip-path="url(#p7f3d8c0a57)" style="fill: #555599; stroke: #ffffff; stroke-linejoin: miter"/>
   </g>
   <g id="patch_59">
    <path d="M 199.077025 253.44 
L 201.219174 253.44 
L 201.219174 54.129949 
L 199.077025 54.129949 
z
" clip-path="url(#p7f3d8c0a57)" style="fill: #555599; stroke: #ffffff; stroke-linejoin: miter"/>
   </g>
   <g id="patch_60">
    <path d="M 201.219174 253.44 
L 203.361322 253.44 
L 203.361322 59.947552 
L 201.219174 59.947552 
z
" clip-path="url(#p7f3d8c0a57)" style="fill: #555599; stroke: #ffffff; stroke-linejoin: miter"/>
   </g>
   <g id="patch_61">
    <path d="M 203.361322 253.44 
L 205.503471 253.44 
L 205.503471 71.347388 
L 203.361322 71.347388 
z
" clip-path="url(#p7f3d8c0a57)" style="fill: #555599; stroke: #ffffff; stroke-linejoin: miter"/>
   </g>
   <g id="patch_62">
    <path d="M 205.503471 253.44 
L 207.64562 253.44 
L 207.64562 74.796998 
L 205.503471 74.796998 
z
" clip-path="url(#p7f3d8c0a57)" style="fill: #555599; stroke: #ffffff; stroke-linejoin: miter"/>
   </g>
   <g id="patch_63">
    <path d="M 207.64562 253.44 
L 209.787769 253.44 
L 209.787769 89.180464 
L 207.64562 89.180464 
z
" clip-path="url(#p7f3d8c0a57)" style="fill: #555599; stroke: #ffffff; stroke-linejoin: miter"/>
   </g>
   <g id="patch_64">
    <path d="M 209.787769 253.44 
L 211.929917 253.44 
L 211.929917 101.402737 
L 209.787769 101.402737 
z
" clip-path="url(#p7f3d8c0a57)" style="fill: #555599; stroke: #ffffff; stroke-linejoin: miter"/>
   </g>
   <g id="patch_65">
    <path d="M 211.929917 253.44 
L 214.072066 253.44 
L 214.072066 119.033095 
L 211.929917 119.033095 
z
" clip-path="url(#p7f3d8c0a57)" style="fill: #555599; stroke: #ffffff; stroke-linejoin: miter"/>
   </g>
   <g id="patch_66">
    <path d="M 214.072066 253.44 
L 216.214215 253.44 
L 216.214215 128.741118 
L 214.072066 128.741118 
z
" clip-path="url(#p7f3d8c0a57)" style="fill: #555599; stroke: #ffffff; stroke-linejoin: miter"/>
   </g>
   <g id="patch_67">
    <path d="M 216.214215 253.44 
L 218.356364 253.44 
L 218.356364 143.377641 
L 216.214215 143.377641 
z
" clip-path="url(#p7f3d8c0a57)" style="fill: #555599; stroke: #ffffff; stroke-linejoin: miter"/>
   </g>
   <g id="patch_68">
    <path d="M 218.356364 253.44 
L 220.498512 253.44 
L 220.498512 153.479537 
L 218.356364 153.479537 
z
" clip-path="url(#p7f3d8c0a57)" style="fill: #555599; stroke: #ffffff; stroke-linejoin: miter"/>
   </g>
   <g id="patch_69">
    <path d="M 220.498512 253.44 
L 222.640661 253.44 
L 222.640661 163.262389 
L 220.498512 163.262389 
z
" clip-path="url(#p7f3d8c0a57)" style="fill: #555599; stroke: #ffffff; stroke-linejoin: miter"/>
   </g>
   <g id="patch_70">
    <path d="M 222.640661 253.44 
L 224.78281 253.44 
L 224.78281 171.250709 
L 222.640661 171.250709 
z
" clip-path="url(#p7f3d8c0a57)" style="fill: #555599; stroke: #ffffff; stroke-linejoin: miter"/>
   </g>
   <g id="patch_71">
    <path d="M 224.78281 253.44 
L 226.924959 253.44 
L 226.924959 178.235642 
L 224.78281 178.235642 
z
" clip-path="url(#p7f3d8c0a57)" style="fill: #555599; stroke: #ffffff; stroke-linejoin: miter"/>
   </g>
   <g id="patch_72">
    <path d="M 226.924959 253.44 
L 229.067107 253.44 
L 229.067107 189.970167 
L 226.924959 189.970167 
z
" clip-path="url(#p7f3d8c0a57)" style="fill: #555599; stroke: #ffffff; stroke-linejoin: miter"/>
   </g>
   <g id="patch_73">
    <path d="M 229.067107 253.44 
L 231.209256 253.44 
L 231.209256 198.495214 
L 229.067107 198.495214 
z
" clip-path="url(#p7f3d8c0a57)" style="fill: #555599; stroke: #ffffff; stroke-linejoin: miter"/>
   </g>
   <g id="patch_74">
    <path d="M 231.209256 253.44 
L 233.351405 253.44 
L 233.351405 197.678899 
L 231.209256 197.678899 
z
" clip-path="url(#p7f3d8c0a57)" style="fill: #555599; stroke: #ffffff; stroke-linejoin: miter"/>
   </g>
   <g id="patch_75">
    <path d="M 233.351405 253.44 
L 235.493554 253.44 
L 235.493554 197.870053 
L 233.351405 197.870053 
z
" clip-path="url(#p7f3d8c0a57)" style="fill: #555599; stroke: #ffffff; stroke-linejoin: miter"/>
   </g>
   <g id="patch_76">
    <path d="M 235.493554 253.44 
L 237.635702 253.44 
L 237.635702 200.84552 
L 235.493554 200.84552 
z
" clip-path="url(#p7f3d8c0a57)" style="fill: #555599; stroke: #ffffff; stroke-linejoin: miter"/>
   </g>
   <g id="patch_77">
    <path d="M 237.635702 253.44 
L 239.777851 253.44 
L 239.777851 204.052957 
L 237.635702 204.052957 
z
" clip-path="url(#p7f3d8c0a57)" style="fill: #555599; stroke: #ffffff; stroke-linejoin: miter"/>
   </g>
   <g id="patch_78">
    <path d="M 239.777851 253.44 
L 241.92 253.44 
L 241.92 194.532006 
L 239.777851 194.532006 
z
" clip-path="url(#p7f3d8c0a57)" style="fill: #555599; stroke: #ffffff; stroke-linejoin: miter"/>
   </g>
   <g id="patch_79">
    <path d="M 241.92 253.44 
L 244.062149 253.44 
L 244.062149 196.474155 
L 241.92 196.474155 
z
" clip-path="url(#p7f3d8c0a57)" style="fill: #555599; stroke: #ffffff; stroke-linejoin: miter"/>
   </g>
   <g id="patch_80">
    <path d="M 244.062149 253.44 
L 246.204298 253.44 
L 246.204298 200.121721 
L 244.062149 200.121721 
z
" clip-path="url(#p7f3d8c0a57)" style="fill: #555599; stroke: #ffffff; stroke-linejoin: miter"/>
   </g>
   <g id="patch_81">
    <path d="M 246.204298 253.44 
L 248.346446 253.44 
L 248.346446 202.671344 
L 246.204298 202.671344 
z
" clip-path="url(#p7f3d8c0a57)" style="fill: #555599; stroke: #ffffff; stroke-linejoin: miter"/>
   </g>
   <g id="patch_82">
    <path d="M 248.346446 253.44 
L 250.488595 253.44 
L 250.488595 205.191716 
L 248.346446 205.191716 
z
" clip-path="url(#p7f3d8c0a57)" style="fill: #555599; stroke: #ffffff; stroke-linejoin: miter"/>
   </g>
   <g id="patch_83">
    <path d="M 250.488595 253.44 
L 252.630744 253.44 
L 252.630744 209.576687 
L 250.488595 209.576687 
z
" clip-path="url(#p7f3d8c0a57)" style="fill: #555599; stroke: #ffffff; stroke-linejoin: miter"/>
   </g>
   <g id="patch_84">
    <path d="M 252.630744 253.44 
L 254.772893 253.44 
L 254.772893 211.732438 
L 252.630744 211.732438 
z
" clip-path="url(#p7f3d8c0a57)" style="fill: #555599; stroke: #ffffff; stroke-linejoin: miter"/>
   </g>
   <g id="patch_85">
    <path d="M 254.772893 253.44 
L 256.915041 253.44 
L 256.915041 214.994976 
L 254.772893 214.994976 
z
" clip-path="url(#p7f3d8c0a57)" style="fill: #555599; stroke: #ffffff; stroke-linejoin: miter"/>
   </g>
   <g id="patch_86">
    <path d="M 256.915041 253.44 
L 259.05719 253.44 
L 259.05719 216.642571 
L 256.915041 216.642571 
z
" clip-path="url(#p7f3d8c0a57)" style="fill: #555599; stroke: #ffffff; stroke-linejoin: miter"/>
   </g>
   <g id="patch_87">
    <path d="M 259.05719 253.44 
L 261.199339 253.44 
L 261.199339 218.467715 
L 259.05719 218.467715 
z
" clip-path="url(#p7f3d8c0a57)" style="fill: #555599; stroke: #ffffff; stroke-linejoin: miter"/>
   </g>
   <g id="patch_88">
    <path d="M 261.199339 253.44 
L 263.341488 253.44 
L 263.341488 220.94455 
L 261.199339 220.94455 
z
" clip-path="url(#p7f3d8c0a57)" style="fill: #555599; stroke: #ffffff; stroke-linejoin: miter"/>
   </g>
   <g id="patch_89">
    <path d="M 263.341488 253.44 
L 265.483636 253.44 
L 265.483636 222.907787 
L 263.341488 222.907787 
z
" clip-path="url(#p7f3d8c0a57)" style="fill: #555599; stroke: #ffffff; stroke-linejoin: miter"/>
   </g>
   <g id="patch_90">
    <path d="M 265.483636 253.44 
L 267.625785 253.44 
L 267.625785 225.081906 
L 265.483636 225.081906 
z
" clip-path="url(#p7f3d8c0a57)" style="fill: #555599; stroke: #ffffff; stroke-linejoin: miter"/>
   </g>
   <g id="patch_91">
    <path d="M 267.625785 253.44 
L 269.767934 253.44 
L 269.767934 226.582564 
L 267.625785 226.582564 
z
" clip-path="url(#p7f3d8c0a57)" style="fill: #555599; stroke: #ffffff; stroke-linejoin: miter"/>
   </g>
   <g id="patch_92">
    <path d="M 269.767934 253.44 
L 271.910083 253.44 
L 271.910083 228.743077 
L 269.767934 228.743077 
z
" clip-path="url(#p7f3d8c0a57)" style="fill: #555599; stroke: #ffffff; stroke-linejoin: miter"/>
   </g>
   <g id="patch_93">
    <path d="M 271.910083 253.44 
L 274.052231 253.44 
L 274.052231 230.43693 
L 271.910083 230.43693 
z
" clip-path="url(#p7f3d8c0a57)" style="fill: #555599; stroke: #ffffff; stroke-linejoin: miter"/>
   </g>
   <g id="patch_94">
    <path d="M 274.052231 253.44 
L 276.19438 253.44 
L 276.19438 232.25187 
L 274.052231 232.25187 
z
" clip-path="url(#p7f3d8c0a57)" style="fill: #555599; stroke: #ffffff; stroke-linejoin: miter"/>
   </g>
   <g id="patch_95">
    <path d="M 276.19438 253.44 
L 278.336529 253.44 
L 278.336529 233.3158 
L 276.19438 233.3158 
z
" clip-path="url(#p7f3d8c0a57)" style="fill: #555599; stroke: #ffffff; stroke-linejoin: miter"/>
   </g>
   <g id="patch_96">
    <path d="M 278.336529 253.44 
L 280.478678 253.44 
L 280.478678 234.691291 
L 278.336529 234.691291 
z
" clip-path="url(#p7f3d8c0a57)" style="fill: #555599; stroke: #ffffff; stroke-linejoin: miter"/>
   </g>
   <g id="patch_97">
    <path d="M 280.478678 253.44 
L 282.620826 253.44 
L 282.620826 236.309635 
L 280.478678 236.309635 
z
" clip-path="url(#p7f3d8c0a57)" style="fill: #555599; stroke: #ffffff; stroke-linejoin: miter"/>
   </g>
   <g id="patch_98">
    <path d="M 282.620826 253.44 
L 284.762975 253.44 
L 284.762975 237.574923 
L 282.620826 237.574923 
z
" clip-path="url(#p7f3d8c0a57)" style="fill: #555599; stroke: #ffffff; stroke-linejoin: miter"/>
   </g>
   <g id="patch_99">
    <path d="M 284.762975 253.44 
L 286.905124 253.44 
L 286.905124 238.978984 
L 284.762975 238.978984 
z
" clip-path="url(#p7f3d8c0a57)" style="fill: #555599; stroke: #ffffff; stroke-linejoin: miter"/>
   </g>
   <g id="patch_100">
    <path d="M 286.905124 253.44 
L 289.047273 253.44 
L 289.047273 240.000738 
L 286.905124 240.000738 
z
" clip-path="url(#p7f3d8c0a57)" style="fill: #555599; stroke: #ffffff; stroke-linejoin: miter"/>
   </g>
   <g id="patch_101">
    <path d="M 289.047273 253.44 
L 291.189421 253.44 
L 291.189421 240.327944 
L 289.047273 240.327944 
z
" clip-path="url(#p7f3d8c0a57)" style="fill: #555599; stroke: #ffffff; stroke-linejoin: miter"/>
   </g>
   <g id="patch_102">
    <path d="M 291.189421 253.44 
L 293.33157 253.44 
L 293.33157 238.765382 
L 291.189421 238.765382 
z
" clip-path="url(#p7f3d8c0a57)" style="fill: #555599; stroke: #ffffff; stroke-linejoin: miter"/>
   </g>
   <g id="patch_103">
    <path d="M 293.33157 253.44 
L 295.473719 253.44 
L 295.473719 239.389182 
L 293.33157 239.389182 
z
" clip-path="url(#p7f3d8c0a57)" style="fill: #555599; stroke: #ffffff; stroke-linejoin: miter"/>
   </g>
   <g id="patch_104">
    <path d="M 295.473719 253.44 
L 297.615868 253.44 
L 297.615868 240.468758 
L 295.473719 240.468758 
z
" clip-path="url(#p7f3d8c0a57)" style="fill: #555599; stroke: #ffffff; stroke-linejoin: miter"/>
   </g>
   <g id="patch_105">
    <path d="M 297.615868 253.44 
L 299.758017 253.44 
L 299.758017 241.806154 
L 297.615868 241.806154 
z
" clip-path="url(#p7f3d8c0a57)" style="fill: #555599; stroke: #ffffff; stroke-linejoin: miter"/>
   </g>
   <g id="patch_106">
    <path d="M 299.758017 253.44 
L 301.900165 253.44 
L 301.900165 243.236066 
L 299.758017 243.236066 
z
" clip-path="url(#p7f3d8c0a57)" style="fill: #555599; stroke: #ffffff; stroke-linejoin: miter"/>
   </g>
   <g id="patch_107">
    <path d="M 301.900165 253.44 
L 304.042314 253.44 
L 304.042314 244.602712 
L 301.900165 244.602712 
z
" clip-path="url(#p7f3d8c0a57)" style="fill: #555599; stroke: #ffffff; stroke-linejoin: miter"/>
   </g>
   <g id="patch_108">
    <path d="M 304.042314 253.44 
L 306.184463 253.44 
L 306.184463 245.621065 
L 304.042314 245.621065 
z
" clip-path="url(#p7f3d8c0a57)" style="fill: #555599; stroke: #ffffff; stroke-linejoin: miter"/>
   </g>
   <g id="patch_109">
    <path d="M 306.184463 253.44 
L 308.326612 253.44 
L 308.326612 246.040787 
L 306.184463 246.040787 
z
" clip-path="url(#p7f3d8c0a57)" style="fill: #555599; stroke: #ffffff; stroke-linejoin: miter"/>
   </g>
   <g id="patch_110">
    <path d="M 308.326612 253.44 
L 310.46876 253.44 
L 310.46876 246.641459 
L 308.326612 246.641459 
z
" clip-path="url(#p7f3d8c0a57)" style="fill: #555599; stroke: #ffffff; stroke-linejoin: miter"/>
   </g>
   <g id="patch_111">
    <path d="M 310.46876 253.44 
L 312.610909 253.44 
L 312.610909 247.003358 
L 310.46876 247.003358 
z
" clip-path="url(#p7f3d8c0a57)" style="fill: #555599; stroke: #ffffff; stroke-linejoin: miter"/>
   </g>
   <g id="patch_112">
    <path d="M 312.610909 253.44 
L 314.753058 253.44 
L 314.753058 246.998596 
L 312.610909 246.998596 
z
" clip-path="url(#p7f3d8c0a57)" style="fill: #555599; stroke: #ffffff; stroke-linejoin: miter"/>
   </g>
   <g id="patch_113">
    <path d="M 314.753058 253.44 
L 316.895207 253.44 
L 316.895207 247.417638 
L 314.753058 247.417638 
z
" clip-path="url(#p7f3d8c0a57)" style="fill: #555599; stroke: #ffffff; stroke-linejoin: miter"/>
   </g>
   <g id="patch_114">
    <path d="M 316.895207 253.44 
L 319.037355 253.44 
L 319.037355 247.684301 
L 316.895207 247.684301 
z
" clip-path="url(#p7f3d8c0a57)" style="fill: #555599; stroke: #ffffff; stroke-linejoin: miter"/>
   </g>
   <g id="patch_115">
    <path d="M 319.037355 253.44 
L 321.179504 253.44 
L 321.179504 248.447555 
L 319.037355 248.447555 
z
" clip-path="url(#p7f3d8c0a57)" style="fill: #555599; stroke: #ffffff; stroke-linejoin: miter"/>
   </g>
   <g id="patch_116">
    <path d="M 321.179504 253.44 
L 323.321653 253.44 
L 323.321653 248.627824 
L 321.179504 248.627824 
z
" clip-path="url(#p7f3d8c0a57)" style="fill: #555599; stroke: #ffffff; stroke-linejoin: miter"/>
   </g>
   <g id="patch_117">
    <path d="M 323.321653 253.44 
L 325.463802 253.44 
L 325.463802 248.929861 
L 323.321653 248.929861 
z
" clip-path="url(#p7f3d8c0a57)" style="fill: #555599; stroke: #ffffff; stroke-linejoin: miter"/>
   </g>
   <g id="patch_118">
    <path d="M 325.463802 253.44 
L 327.60595 253.44 
L 327.60595 249.076117 
L 325.463802 249.076117 
z
" clip-path="url(#p7f3d8c0a57)" style="fill: #555599; stroke: #ffffff; stroke-linejoin: miter"/>
   </g>
   <g id="patch_119">
    <path d="M 327.60595 253.44 
L 329.748099 253.44 
L 329.748099 249.545498 
L 327.60595 249.545498 
z
" clip-path="url(#p7f3d8c0a57)" style="fill: #555599; stroke: #ffffff; stroke-linejoin: miter"/>
   </g>
   <g id="patch_120">
    <path d="M 329.748099 253.44 
L 331.890248 253.44 
L 331.890248 249.559104 
L 329.748099 249.559104 
z
" clip-path="url(#p7f3d8c0a57)" style="fill: #555599; stroke: #ffffff; stroke-linejoin: miter"/>
   </g>
   <g id="patch_121">
    <path d="M 331.890248 253.44 
L 334.032397 253.44 
L 334.032397 249.540056 
L 331.890248 249.540056 
z
" clip-path="url(#p7f3d8c0a57)" style="fill: #555599; stroke: #ffffff; stroke-linejoin: miter"/>
   </g>
   <g id="patch_122">
    <path d="M 334.032397 253.44 
L 336.174545 253.44 
L 336.174545 249.96386 
L 334.032397 249.96386 
z
" clip-path="url(#p7f3d8c0a57)" style="fill: #555599; stroke: #ffffff; stroke-linejoin: miter"/>
   </g>
   <g id="patch_123">
    <path d="M 336.174545 253.44 
L 338.316694 253.44 
L 338.316694 250.188346 
L 336.174545 250.188346 
z
" clip-path="url(#p7f3d8c0a57)" style="fill: #555599; stroke: #ffffff; stroke-linejoin: miter"/>
   </g>
   <g id="patch_124">
    <path d="M 338.316694 253.44 
L 340.458843 253.44 
L 340.458843 250.518273 
L 338.316694 250.518273 
z
" clip-path="url(#p7f3d8c0a57)" style="fill: #555599; stroke: #ffffff; stroke-linejoin: miter"/>
   </g>
   <g id="patch_125">
    <path d="M 340.458843 253.44 
L 342.600992 253.44 
L 342.600992 250.659088 
L 340.458843 250.659088 
z
" clip-path="url(#p7f3d8c0a57)" style="fill: #555599; stroke: #ffffff; stroke-linejoin: miter"/>
   </g>
   <g id="patch_126">
    <path d="M 342.600992 253.44 
L 344.74314 253.44 
L 344.74314 250.852282 
L 342.600992 250.852282 
z
" clip-path="url(#p7f3d8c0a57)" style="fill: #555599; stroke: #ffffff; stroke-linejoin: miter"/>
   </g>
   <g id="patch_127">
    <path d="M 344.74314 253.44 
L 346.885289 253.44 
L 346.885289 251.117585 
L 344.74314 251.117585 
z
" clip-path="url(#p7f3d8c0a57)" style="fill: #555599; stroke: #ffffff; stroke-linejoin: miter"/>
   </g>
   <g id="patch_128">
    <path d="M 346.885289 253.44 
L 349.027438 253.44 
L 349.027438 251.133231 
L 346.885289 251.133231 
z
" clip-path="url(#p7f3d8c0a57)" style="fill: #555599; stroke: #ffffff; stroke-linejoin: miter"/>
   </g>
   <g id="patch_129">
    <path d="M 349.027438 253.44 
L 351.169587 253.44 
L 351.169587 251.220984 
L 349.027438 251.220984 
z
" clip-path="url(#p7f3d8c0a57)" style="fill: #555599; stroke: #ffffff; stroke-linejoin: miter"/>
   </g>
   <g id="patch_130">
    <path d="M 351.169587 253.44 
L 353.311736 253.44 
L 353.311736 251.139353 
L 351.169587 251.139353 
z
" clip-path="url(#p7f3d8c0a57)" style="fill: #555599; stroke: #ffffff; stroke-linejoin: miter"/>
   </g>
   <g id="patch_131">
    <path d="M 353.311736 253.44 
L 355.453884 253.44 
L 355.453884 251.379485 
L 353.311736 251.379485 
z
" clip-path="url(#p7f3d8c0a57)" style="fill: #555599; stroke: #ffffff; stroke-linejoin: miter"/>
   </g>
   <g id="patch_132">
    <path d="M 355.453884 253.44 
L 357.596033 253.44 
L 357.596033 251.450233 
L 355.453884 251.450233 
z
" clip-path="url(#p7f3d8c0a57)" style="fill: #555599; stroke: #ffffff; stroke-linejoin: miter"/>
   </g>
   <g id="patch_133">
    <path d="M 357.596033 253.44 
L 359.738182 253.44 
L 359.738182 251.433906 
L 357.596033 251.433906 
z
" clip-path="url(#p7f3d8c0a57)" style="fill: #555599; stroke: #ffffff; stroke-linejoin: miter"/>
   </g>
   <g id="patch_134">
    <path d="M 359.738182 253.44 
L 361.880331 253.44 
L 361.880331 251.668597 
L 359.738182 251.668597 
z
" clip-path="url(#p7f3d8c0a57)" style="fill: #555599; stroke: #ffffff; stroke-linejoin: miter"/>
   </g>
   <g id="patch_135">
    <path d="M 361.880331 253.44 
L 364.022479 253.44 
L 364.022479 251.767915 
L 361.880331 251.767915 
z
" clip-path="url(#p7f3d8c0a57)" style="fill: #555599; stroke: #ffffff; stroke-linejoin: miter"/>
   </g>
   <g id="patch_136">
    <path d="M 364.022479 253.44 
L 366.164628 253.44 
L 366.164628 251.895124 
L 364.022479 251.895124 
z
" clip-path="url(#p7f3d8c0a57)" style="fill: #555599; stroke: #ffffff; stroke-linejoin: miter"/>
   </g>
   <g id="patch_137">
    <path d="M 366.164628 253.44 
L 368.306777 253.44 
L 368.306777 251.916893 
L 366.164628 251.916893 
z
" clip-path="url(#p7f3d8c0a57)" style="fill: #555599; stroke: #ffffff; stroke-linejoin: miter"/>
   </g>
   <g id="patch_138">
    <path d="M 368.306777 253.44 
L 370.448926 253.44 
L 370.448926 251.966552 
L 368.306777 251.966552 
z
" clip-path="url(#p7f3d8c0a57)" style="fill: #555599; stroke: #ffffff; stroke-linejoin: miter"/>
   </g>
   <g id="patch_139">
    <path d="M 370.448926 253.44 
L 372.591074 253.44 
L 372.591074 252.098523 
L 370.448926 252.098523 
z
" clip-path="url(#p7f3d8c0a57)" style="fill: #555599; stroke: #ffffff; stroke-linejoin: miter"/>
   </g>
   <g id="patch_140">
    <path d="M 372.591074 253.44 
L 374.733223 253.44 
L 374.733223 252.009408 
L 372.591074 252.009408 
z
" clip-path="url(#p7f3d8c0a57)" style="fill: #555599; stroke: #ffffff; stroke-linejoin: miter"/>
   </g>
   <g id="patch_141">
    <path d="M 374.733223 253.44 
L 376.875372 253.44 
L 376.875372 252.111448 
L 374.733223 252.111448 
z
" clip-path="url(#p7f3d8c0a57)" style="fill: #555599; stroke: #ffffff; stroke-linejoin: miter"/>
   </g>
   <g id="patch_142">
    <path d="M 376.875372 253.44 
L 379.017521 253.44 
L 379.017521 252.135257 
L 376.875372 252.135257 
z
" clip-path="url(#p7f3d8c0a57)" style="fill: #555599; stroke: #ffffff; stroke-linejoin: miter"/>
   </g>
   <g id="patch_143">
    <path d="M 379.017521 253.44 
L 381.159669 253.44 
L 381.159669 252.226412 
L 379.017521 252.226412 
z
" clip-path="url(#p7f3d8c0a57)" style="fill: #555599; stroke: #ffffff; stroke-linejoin: miter"/>
   </g>
   <g id="patch_144">
    <path d="M 381.159669 253.44 
L 383.301818 253.44 
L 383.301818 252.225732 
L 381.159669 252.225732 
z
" clip-path="url(#p7f3d8c0a57)" style="fill: #555599; stroke: #ffffff; stroke-linejoin: miter"/>
   </g>
   <g id="patch_145">
    <path d="M 383.301818 253.44 
L 385.443967 253.44 
L 385.443967 252.214848 
L 383.301818 252.214848 
z
" clip-path="url(#p7f3d8c0a57)" style="fill: #555599; stroke: #ffffff; stroke-linejoin: miter"/>
   </g>
   <g id="patch_146">
    <path d="M 385.443967 253.44 
L 387.586116 253.44 
L 387.586116 252.27267 
L 385.443967 252.27267 
z
" clip-path="url(#p7f3d8c0a57)" style="fill: #555599; stroke: #ffffff; stroke-linejoin: miter"/>
   </g>
   <g id="patch_147">
    <path d="M 387.586116 253.44 
L 389.728264 253.44 
L 389.728264 252.2992 
L 387.586116 252.2992 
z
" clip-path="url(#p7f3d8c0a57)" style="fill: #555599; stroke: #ffffff; stroke-linejoin: miter"/>
   </g>
   <g id="patch_148">
    <path d="M 389.728264 253.44 
L 391.870413 253.44 
L 391.870413 252.310765 
L 389.728264 252.310765 
z
" clip-path="url(#p7f3d8c0a57)" style="fill: #555599; stroke: #ffffff; stroke-linejoin: miter"/>
   </g>
   <g id="patch_149">
    <path d="M 391.870413 253.44 
L 394.012562 253.44 
L 394.012562 252.307363 
L 391.870413 252.307363 
z
" clip-path="url(#p7f3d8c0a57)" style="fill: #555599; stroke: #ffffff; stroke-linejoin: miter"/>
   </g>
   <g id="patch_150">
    <path d="M 394.012562 253.44 
L 396.154711 253.44 
L 396.154711 252.366546 
L 394.012562 252.366546 
z
" clip-path="url(#p7f3d8c0a57)" style="fill: #555599; stroke: #ffffff; stroke-linejoin: miter"/>
   </g>
   <g id="patch_151">
    <path d="M 396.154711 253.44 
L 398.29686 253.44 
L 398.29686 252.443416 
L 396.154711 252.443416 
z
" clip-path="url(#p7f3d8c0a57)" style="fill: #555599; stroke: #ffffff; stroke-linejoin: miter"/>
   </g>
   <g id="patch_152">
    <path d="M 398.29686 253.44 
L 400.439008 253.44 
L 400.439008 252.497837 
L 398.29686 252.497837 
z
" clip-path="url(#p7f3d8c0a57)" style="fill: #555599; stroke: #ffffff; stroke-linejoin: miter"/>
   </g>
   <g id="patch_153">
    <path d="M 400.439008 253.44 
L 402.581157 253.44 
L 402.581157 252.469266 
L 400.439008 252.469266 
z
" clip-path="url(#p7f3d8c0a57)" style="fill: #555599; stroke: #ffffff; stroke-linejoin: miter"/>
   </g>
   <g id="patch_154">
    <path d="M 402.581157 253.44 
L 404.723306 253.44 
L 404.723306 252.523687 
L 402.581157 252.523687 
z
" clip-path="url(#p7f3d8c0a57)" style="fill: #555599; stroke: #ffffff; stroke-linejoin: miter"/>
   </g>
   <g id="patch_155">
    <path d="M 404.723306 253.44 
L 406.865455 253.44 
L 406.865455 252.665862 
L 404.723306 252.665862 
z
" clip-path="url(#p7f3d8c0a57)" style="fill: #555599; stroke: #ffffff; stroke-linejoin: miter"/>
   </g>
   <g id="patch_156">
    <path d="M 60.48 253.44 
L 60.48 5.76 
" style="fill: none; stroke: #ffffff; stroke-width: 1.25; stroke-linejoin: miter; stroke-linecap: square"/>
   </g>
   <g id="patch_157">
    <path d="M 423.36 253.44 
L 423.36 5.76 
" style="fill: none; stroke: #ffffff; stroke-width: 1.25; stroke-linejoin: miter; stroke-linecap: square"/>
   </g>
   <g id="patch_158">
    <path d="M 60.48 253.44 
L 423.36 253.44 
" style="fill: none; stroke: #ffffff; stroke-width: 1.25; stroke-linejoin: miter; stroke-linecap: square"/>
   </g>
   <g id="patch_159">
    <path d="M 60.48 5.76 
L 423.36 5.76 
" style="fill: none; stroke: #ffffff; stroke-width: 1.25; stroke-linejoin: miter; stroke-linecap: square"/>
   </g>
   <g id="legend_1">
    <g id="patch_160">
     <path d="M 250.444461 29.890895 
L 415.66 29.890895 
Q 417.86 29.890895 417.86 27.690895 
L 417.86 13.46 
Q 417.86 11.26 415.66 11.26 
L 250.444461 11.26 
Q 248.244461 11.26 248.244461 13.46 
L 248.244461 27.690895 
Q 248.244461 29.890895 250.444461 29.890895 
z
" style="opacity: 0.8; stroke: #cccccc; stroke-linejoin: miter"/>
    </g>
    <g id="patch_161">
     <path d="M 252.644461 23.36 
L 274.644461 23.36 
L 274.644461 15.66 
L 252.644461 15.66 
z
" style="fill: #555599; stroke: #ffffff; stroke-linejoin: miter"/>
    </g>
    <g id="text_19">
     <!-- Birth year of the desceased -->
     <g style="fill: #ffffff" transform="translate(283.444461 23.36) scale(0.11 -0.11)">
      <defs>
       <path id="CMR17-42" d="M 333 4352 
L 333 4186 
C 774 4186 845 4186 845 3900 
L 845 452 
C 845 166 774 166 333 166 
L 333 0 
L 2534 0 
C 3354 0 3885 583 3885 1164 
C 3885 1741 3360 2233 2675 2233 
C 3290 2356 3718 2771 3718 3264 
C 3718 3802 3194 4352 2368 4352 
L 333 4352 
z
M 1248 2304 
L 1248 3937 
C 1248 4155 1261 4186 1517 4186 
L 2336 4186 
C 2970 4186 3251 3674 3251 3277 
C 3251 2791 2861 2304 2170 2304 
L 1248 2304 
z
M 1517 166 
C 1261 166 1248 197 1248 413 
L 1248 2202 
L 2432 2202 
C 3091 2202 3411 1625 3411 1162 
C 3411 699 3046 166 2349 166 
L 1517 166 
z
" transform="scale(0.015625)"/>
       <path id="CMR17-69" d="M 992 3909 
C 992 4049 877 4170 730 4170 
C 589 4170 467 4056 467 3909 
C 467 3769 582 3648 730 3648 
C 870 3648 992 3763 992 3909 
z
M 243 2706 
L 243 2541 
C 602 2541 653 2502 653 2197 
L 653 427 
C 653 184 627 153 218 153 
L 218 -13 
C 371 0 646 0 806 0 
C 960 0 1222 0 1370 -13 
L 1370 153 
C 992 153 979 191 979 420 
L 979 2776 
L 243 2706 
z
" transform="scale(0.015625)"/>
       <path id="CMR17-74" d="M 966 2560 
L 1862 2560 
L 1862 2725 
L 966 2725 
L 966 3904 
L 851 3904 
C 838 3245 614 2668 70 2668 
L 70 2560 
L 627 2560 
L 627 771 
C 627 650 627 -64 1370 -64 
C 1747 -64 1965 306 1965 777 
L 1965 1140 
L 1850 1140 
L 1850 783 
C 1850 344 1677 51 1408 51 
C 1222 51 966 178 966 758 
L 966 2560 
z
" transform="scale(0.015625)"/>
       <path id="CMR17-68" d="M 2656 1933 
C 2656 2259 2592 2790 1837 2790 
C 1312 2790 1056 2368 979 2157 
L 973 2157 
L 973 4396 
L 211 4326 
L 211 4160 
C 589 4160 646 4122 646 3817 
L 646 426 
C 646 184 621 153 211 153 
L 211 -13 
C 365 0 646 0 813 0 
C 979 0 1267 0 1421 -13 
L 1421 153 
C 1011 153 986 178 986 428 
L 986 1658 
C 986 2247 1344 2688 1792 2688 
C 2266 2688 2317 2266 2317 1958 
L 2317 428 
C 2317 184 2291 153 1882 153 
L 1882 -13 
C 2035 0 2317 0 2483 0 
C 2650 0 2938 0 3091 -13 
L 3091 153 
C 2682 153 2656 178 2656 428 
L 2656 1933 
z
" transform="scale(0.015625)"/>
       <path id="CMR17-79" d="M 2496 2197 
C 2656 2586 2944 2586 3034 2586 
L 3034 2752 
C 2912 2752 2752 2752 2630 2752 
C 2496 2752 2285 2752 2157 2758 
L 2157 2592 
C 2400 2573 2406 2394 2406 2343 
C 2406 2280 2394 2248 2362 2171 
L 1664 449 
L 902 2306 
C 870 2382 870 2426 870 2433 
C 870 2573 1018 2586 1171 2586 
L 1171 2758 
C 1018 2752 742 2752 582 2752 
C 410 2752 205 2752 64 2758 
L 64 2586 
C 410 2586 448 2554 531 2350 
L 1485 15 
C 1197 -738 1030 -1178 627 -1178 
C 557 -1178 397 -1159 282 -1044 
C 429 -1031 493 -942 493 -833 
C 493 -725 416 -629 288 -629 
C 147 -629 77 -725 77 -840 
C 77 -1095 339 -1280 627 -1280 
C 998 -1280 1229 -922 1357 -604 
L 2496 2197 
z
" transform="scale(0.015625)"/>
       <path id="CMR17-6f" d="M 2758 1356 
C 2758 2176 2163 2816 1466 2816 
C 768 2816 173 2176 173 1356 
C 173 551 768 -64 1466 -64 
C 2163 -64 2758 551 2758 1356 
z
M 1466 51 
C 1165 51 909 230 762 480 
C 602 767 582 1126 582 1408 
C 582 1677 595 2010 762 2298 
C 890 2509 1139 2714 1466 2714 
C 1754 2714 1997 2554 2150 2330 
C 2349 2029 2349 1607 2349 1408 
C 2349 1158 2336 775 2163 467 
C 1984 173 1709 51 1466 51 
z
" transform="scale(0.015625)"/>
       <path id="CMR17-66" d="M 979 2560 
L 1709 2560 
L 1709 2725 
L 966 2725 
L 966 3494 
C 966 4022 1235 4352 1510 4352 
C 1594 4352 1690 4327 1754 4282 
C 1702 4269 1568 4225 1568 4067 
C 1568 3901 1696 3850 1786 3850 
C 1875 3850 2003 3901 2003 4067 
C 2003 4308 1773 4454 1517 4454 
C 1152 4454 653 4156 653 3481 
L 653 2725 
L 141 2725 
L 141 2560 
L 653 2560 
L 653 427 
C 653 184 627 153 218 153 
L 218 -13 
C 371 0 666 0 832 0 
C 1018 0 1344 0 1517 -13 
L 1517 153 
C 1056 153 979 153 979 439 
L 979 2560 
z
" transform="scale(0.015625)"/>
       <path id="CMR17-64" d="M 1869 4326 
L 1869 4160 
C 2246 4160 2304 4122 2304 3820 
L 2304 2345 
C 2278 2377 2016 2790 1498 2790 
C 845 2790 211 2208 211 1364 
C 211 525 806 -64 1434 -64 
C 1978 -64 2259 337 2291 380 
L 2291 -63 
L 3066 -63 
L 3066 128 
C 2688 128 2630 166 2630 473 
L 2630 4396 
L 1869 4326 
z
M 2291 755 
C 2291 563 2176 390 2029 262 
C 1811 70 1594 38 1472 38 
C 1286 38 621 134 621 1356 
C 621 2612 1363 2688 1530 2688 
C 1824 2688 2061 2522 2208 2291 
C 2291 2157 2291 2138 2291 2023 
L 2291 755 
z
" transform="scale(0.015625)"/>
       <path id="CMR17-73" d="M 1978 2697 
C 1978 2813 1971 2819 1933 2819 
C 1907 2819 1901 2813 1824 2717 
C 1805 2691 1747 2626 1728 2601 
C 1523 2819 1235 2819 1126 2819 
C 416 2819 160 2447 160 2076 
C 160 1498 813 1365 998 1325 
C 1402 1243 1542 1217 1677 1101 
C 1760 1025 1901 884 1901 654 
C 1901 384 1747 38 1158 38 
C 602 38 403 460 288 1021 
C 269 1110 269 1117 218 1117 
C 166 1117 160 1110 160 983 
L 160 63 
C 160 -51 166 -58 205 -58 
C 237 -58 243 -51 275 0 
C 314 57 410 211 448 276 
C 576 103 800 -64 1158 -64 
C 1792 -64 2131 283 2131 784 
C 2131 1112 1958 1285 1875 1362 
C 1683 1561 1459 1606 1190 1657 
C 838 1735 390 1825 390 2217 
C 390 2383 480 2737 1126 2737 
C 1811 2737 1850 2094 1862 1888 
C 1869 1856 1901 1849 1920 1849 
C 1978 1849 1978 1869 1978 1978 
L 1978 2697 
z
" transform="scale(0.015625)"/>
       <path id="CMR17-63" d="M 2234 2240 
C 2112 2240 1933 2240 1933 2017 
C 1933 1838 2080 1787 2163 1787 
C 2208 1787 2394 1807 2394 2024 
C 2394 2467 1958 2803 1466 2803 
C 787 2803 211 2178 211 1363 
C 211 516 813 -64 1466 -64 
C 2259 -64 2458 677 2458 748 
C 2458 774 2451 793 2406 793 
C 2362 793 2355 787 2330 703 
C 2163 180 1798 51 1523 51 
C 1114 51 621 427 621 1369 
C 621 2338 1094 2688 1472 2688 
C 1722 2688 2093 2573 2234 2240 
z
" transform="scale(0.015625)"/>
      </defs>
      <use xlink:href="#CMR17-42" transform="scale(0.996264)"/>
      <use xlink:href="#CMR17-69" transform="translate(65.188754 0) scale(0.996264)"/>
      <use xlink:href="#CMR17-72" transform="translate(90.059813 0) scale(0.996264)"/>
      <use xlink:href="#CMR17-74" transform="translate(125.340581 0) scale(0.996264)"/>
      <use xlink:href="#CMR17-68" transform="translate(160.621349 0) scale(0.996264)"/>
      <use xlink:href="#CMR17-79" transform="translate(241.592685 0) scale(0.996264)"/>
      <use xlink:href="#CMR17-65" transform="translate(287.283147 0) scale(0.996264)"/>
      <use xlink:href="#CMR17-61" transform="translate(327.768807 0) scale(0.996264)"/>
      <use xlink:href="#CMR17-72" transform="translate(373.459284 0) scale(0.996264)"/>
      <use xlink:href="#CMR17-6f" transform="translate(438.816018 0) scale(0.996264)"/>
      <use xlink:href="#CMR17-66" transform="translate(484.506495 0) scale(0.996264)"/>
      <use xlink:href="#CMR17-74" transform="translate(542.055974 0) scale(0.996264)"/>
      <use xlink:href="#CMR17-68" transform="translate(577.336742 0) scale(0.996264)"/>
      <use xlink:href="#CMR17-65" transform="translate(628.232112 0) scale(0.996264)"/>
      <use xlink:href="#CMR17-64" transform="translate(698.793739 0) scale(0.996264)"/>
      <use xlink:href="#CMR17-65" transform="translate(749.689108 0) scale(0.996264)"/>
      <use xlink:href="#CMR17-73" transform="translate(790.174769 0) scale(0.996264)"/>
      <use xlink:href="#CMR17-63" transform="translate(825.976106 0) scale(0.996264)"/>
      <use xlink:href="#CMR17-65" transform="translate(866.461767 0) scale(0.996264)"/>
      <use xlink:href="#CMR17-61" transform="translate(906.947427 0) scale(0.996264)"/>
      <use xlink:href="#CMR17-73" transform="translate(952.637904 0) scale(0.996264)"/>
      <use xlink:href="#CMR17-65" transform="translate(988.439242 0) scale(0.996264)"/>
      <use xlink:href="#CMR17-64" transform="translate(1028.924903 0) scale(0.996264)"/>
     </g>
    </g>
   </g>
  </g>
  <g id="axes_2">
   <g id="patch_162">
    <path d="M 440.64 253.44 
L 803.52 253.44 
L 803.52 5.76 
L 440.64 5.76 
z
"/>
   </g>
   <g id="matplotlib.axis_3">
    <g id="xtick_9">
     <g id="line2d_17">
      <path d="M 460.189091 253.44 
L 460.189091 5.76 
" clip-path="url(#p87d57e742d)" style="fill: none; stroke-dasharray: 3.7,1.6; stroke-dashoffset: 0; stroke: #ffffff"/>
     </g>
     <g id="text_20">
      <!-- $\mathdefault{1970}$ -->
      <g style="fill: #ffffff" transform="translate(449.230156 270.550347) scale(0.11 -0.11)">
       <defs>
        <path id="CMR17-37" d="M 2886 3941 
L 2886 4081 
L 1382 4081 
C 634 4081 621 4165 595 4288 
L 480 4288 
L 294 3094 
L 410 3094 
C 429 3215 474 3540 550 3661 
C 589 3712 1062 3712 1171 3712 
L 2579 3712 
L 1869 2661 
C 1395 1954 1069 999 1069 165 
C 1069 89 1069 -128 1299 -128 
C 1530 -128 1530 89 1530 171 
L 1530 465 
C 1530 1508 1709 2196 2003 2636 
L 2886 3941 
z
" transform="scale(0.015625)"/>
       </defs>
       <use xlink:href="#CMR17-31" transform="scale(0.996264)"/>
       <use xlink:href="#CMR17-39" transform="translate(45.690477 0) scale(0.996264)"/>
       <use xlink:href="#CMR17-37" transform="translate(91.380954 0) scale(0.996264)"/>
       <use xlink:href="#CMR17-30" transform="translate(137.071431 0) scale(0.996264)"/>
      </g>
     </g>
    </g>
    <g id="xtick_10">
     <g id="line2d_18">
      <path d="M 521.28 253.44 
L 521.28 5.76 
" clip-path="url(#p87d57e742d)" style="fill: none; stroke-dasharray: 3.7,1.6; stroke-dashoffset: 0; stroke: #ffffff"/>
     </g>
     <g id="text_21">
      <!-- $\mathdefault{1980}$ -->
      <g style="fill: #ffffff" transform="translate(510.321065 270.550347) scale(0.11 -0.11)">
       <use xlink:href="#CMR17-31" transform="scale(0.996264)"/>
       <use xlink:href="#CMR17-39" transform="translate(45.690477 0) scale(0.996264)"/>
       <use xlink:href="#CMR17-38" transform="translate(91.380954 0) scale(0.996264)"/>
       <use xlink:href="#CMR17-30" transform="translate(137.071431 0) scale(0.996264)"/>
      </g>
     </g>
    </g>
    <g id="xtick_11">
     <g id="line2d_19">
      <path d="M 582.370909 253.44 
L 582.370909 5.76 
" clip-path="url(#p87d57e742d)" style="fill: none; stroke-dasharray: 3.7,1.6; stroke-dashoffset: 0; stroke: #ffffff"/>
     </g>
     <g id="text_22">
      <!-- $\mathdefault{1990}$ -->
      <g style="fill: #ffffff" transform="translate(571.411975 270.550347) scale(0.11 -0.11)">
       <use xlink:href="#CMR17-31" transform="scale(0.996264)"/>
       <use xlink:href="#CMR17-39" transform="translate(45.690477 0) scale(0.996264)"/>
       <use xlink:href="#CMR17-39" transform="translate(91.380954 0) scale(0.996264)"/>
       <use xlink:href="#CMR17-30" transform="translate(137.071431 0) scale(0.996264)"/>
      </g>
     </g>
    </g>
    <g id="xtick_12">
     <g id="line2d_20">
      <path d="M 643.461818 253.44 
L 643.461818 5.76 
" clip-path="url(#p87d57e742d)" style="fill: none; stroke-dasharray: 3.7,1.6; stroke-dashoffset: 0; stroke: #ffffff"/>
     </g>
     <g id="text_23">
      <!-- $\mathdefault{2000}$ -->
      <g style="fill: #ffffff" transform="translate(632.502884 270.550347) scale(0.11 -0.11)">
       <use xlink:href="#CMR17-32" transform="scale(0.996264)"/>
       <use xlink:href="#CMR17-30" transform="translate(45.690477 0) scale(0.996264)"/>
       <use xlink:href="#CMR17-30" transform="translate(91.380954 0) scale(0.996264)"/>
       <use xlink:href="#CMR17-30" transform="translate(137.071431 0) scale(0.996264)"/>
      </g>
     </g>
    </g>
    <g id="xtick_13">
     <g id="line2d_21">
      <path d="M 704.552727 253.44 
L 704.552727 5.76 
" clip-path="url(#p87d57e742d)" style="fill: none; stroke-dasharray: 3.7,1.6; stroke-dashoffset: 0; stroke: #ffffff"/>
     </g>
     <g id="text_24">
      <!-- $\mathdefault{2010}$ -->
      <g style="fill: #ffffff" transform="translate(693.593793 270.550347) scale(0.11 -0.11)">
       <use xlink:href="#CMR17-32" transform="scale(0.996264)"/>
       <use xlink:href="#CMR17-30" transform="translate(45.690477 0) scale(0.996264)"/>
       <use xlink:href="#CMR17-31" transform="translate(91.380954 0) scale(0.996264)"/>
       <use xlink:href="#CMR17-30" transform="translate(137.071431 0) scale(0.996264)"/>
      </g>
     </g>
    </g>
    <g id="xtick_14">
     <g id="line2d_22">
      <path d="M 765.643636 253.44 
L 765.643636 5.76 
" clip-path="url(#p87d57e742d)" style="fill: none; stroke-dasharray: 3.7,1.6; stroke-dashoffset: 0; stroke: #ffffff"/>
     </g>
     <g id="text_25">
      <!-- $\mathdefault{2020}$ -->
      <g style="fill: #ffffff" transform="translate(754.684702 270.550347) scale(0.11 -0.11)">
       <use xlink:href="#CMR17-32" transform="scale(0.996264)"/>
       <use xlink:href="#CMR17-30" transform="translate(45.690477 0) scale(0.996264)"/>
       <use xlink:href="#CMR17-32" transform="translate(91.380954 0) scale(0.996264)"/>
       <use xlink:href="#CMR17-30" transform="translate(137.071431 0) scale(0.996264)"/>
      </g>
     </g>
    </g>
    <g id="text_26">
     <!-- Year -->
     <g style="fill: #ffffff" transform="translate(610.376095 284.983421) scale(0.12 -0.12)">
      <use xlink:href="#CMR17-59" transform="scale(0.996264)"/>
      <use xlink:href="#CMR17-65" transform="translate(61.265174 0) scale(0.996264)"/>
      <use xlink:href="#CMR17-61" transform="translate(101.750835 0) scale(0.996264)"/>
      <use xlink:href="#CMR17-72" transform="translate(147.441312 0) scale(0.996264)"/>
     </g>
    </g>
   </g>
   <g id="matplotlib.axis_4">
    <g id="ytick_9">
     <g id="line2d_23">
      <path d="M 440.64 253.44 
L 803.52 253.44 
" clip-path="url(#p87d57e742d)" style="fill: none; stroke-dasharray: 3.7,1.6; stroke-dashoffset: 0; stroke: #ffffff"/>
     </g>
    </g>
    <g id="ytick_10">
     <g id="line2d_24">
      <path d="M 440.64 219.426885 
L 803.52 219.426885 
" clip-path="url(#p87d57e742d)" style="fill: none; stroke-dasharray: 3.7,1.6; stroke-dashoffset: 0; stroke: #ffffff"/>
     </g>
    </g>
    <g id="ytick_11">
     <g id="line2d_25">
      <path d="M 440.64 185.41377 
L 803.52 185.41377 
" clip-path="url(#p87d57e742d)" style="fill: none; stroke-dasharray: 3.7,1.6; stroke-dashoffset: 0; stroke: #ffffff"/>
     </g>
    </g>
    <g id="ytick_12">
     <g id="line2d_26">
      <path d="M 440.64 151.400655 
L 803.52 151.400655 
" clip-path="url(#p87d57e742d)" style="fill: none; stroke-dasharray: 3.7,1.6; stroke-dashoffset: 0; stroke: #ffffff"/>
     </g>
    </g>
    <g id="ytick_13">
     <g id="line2d_27">
      <path d="M 440.64 117.38754 
L 803.52 117.38754 
" clip-path="url(#p87d57e742d)" style="fill: none; stroke-dasharray: 3.7,1.6; stroke-dashoffset: 0; stroke: #ffffff"/>
     </g>
    </g>
    <g id="ytick_14">
     <g id="line2d_28">
      <path d="M 440.64 83.374425 
L 803.52 83.374425 
" clip-path="url(#p87d57e742d)" style="fill: none; stroke-dasharray: 3.7,1.6; stroke-dashoffset: 0; stroke: #ffffff"/>
     </g>
    </g>
    <g id="ytick_15">
     <g id="line2d_29">
      <path d="M 440.64 49.36131 
L 803.52 49.36131 
" clip-path="url(#p87d57e742d)" style="fill: none; stroke-dasharray: 3.7,1.6; stroke-dashoffset: 0; stroke: #ffffff"/>
     </g>
    </g>
    <g id="ytick_16">
     <g id="line2d_30">
      <path d="M 440.64 15.348195 
L 803.52 15.348195 
" clip-path="url(#p87d57e742d)" style="fill: none; stroke-dasharray: 3.7,1.6; stroke-dashoffset: 0; stroke: #ffffff"/>
     </g>
    </g>
   </g>
   <g id="patch_163">
    <path d="M 457.134545 253.44 
L 463.243636 253.44 
L 463.243636 246.375476 
L 457.134545 246.375476 
z
" clip-path="url(#p87d57e742d)" style="fill: #664444; stroke: #ffffff; stroke-linejoin: miter"/>
   </g>
   <g id="patch_164">
    <path d="M 463.243636 253.44 
L 469.352727 253.44 
L 469.352727 207.946778 
L 463.243636 207.946778 
z
" clip-path="url(#p87d57e742d)" style="fill: #664444; stroke: #ffffff; stroke-linejoin: miter"/>
   </g>
   <g id="patch_165">
    <path d="M 469.352727 253.44 
L 475.461818 253.44 
L 475.461818 157.161796 
L 469.352727 157.161796 
z
" clip-path="url(#p87d57e742d)" style="fill: #664444; stroke: #ffffff; stroke-linejoin: miter"/>
   </g>
   <g id="patch_166">
    <path d="M 475.461818 253.44 
L 481.570909 253.44 
L 481.570909 146.432019 
L 475.461818 146.432019 
z
" clip-path="url(#p87d57e742d)" style="fill: #664444; stroke: #ffffff; stroke-linejoin: miter"/>
   </g>
   <g id="patch_167">
    <path d="M 481.570909 253.44 
L 487.68 253.44 
L 487.68 141.753855 
L 481.570909 141.753855 
z
" clip-path="url(#p87d57e742d)" style="fill: #664444; stroke: #ffffff; stroke-linejoin: miter"/>
   </g>
   <g id="patch_168">
    <path d="M 487.68 253.44 
L 493.789091 253.44 
L 493.789091 134.966878 
L 487.68 134.966878 
z
" clip-path="url(#p87d57e742d)" style="fill: #664444; stroke: #ffffff; stroke-linejoin: miter"/>
   </g>
   <g id="patch_169">
    <path d="M 493.789091 253.44 
L 499.898182 253.44 
L 499.898182 131.00231 
L 493.789091 131.00231 
z
" clip-path="url(#p87d57e742d)" style="fill: #664444; stroke: #ffffff; stroke-linejoin: miter"/>
   </g>
   <g id="patch_170">
    <path d="M 499.898182 253.44 
L 506.007273 253.44 
L 506.007273 131.182579 
L 499.898182 131.182579 
z
" clip-path="url(#p87d57e742d)" style="fill: #664444; stroke: #ffffff; stroke-linejoin: miter"/>
   </g>
   <g id="patch_171">
    <path d="M 506.007273 253.44 
L 512.116364 253.44 
L 512.116364 124.522131 
L 506.007273 124.522131 
z
" clip-path="url(#p87d57e742d)" style="fill: #664444; stroke: #ffffff; stroke-linejoin: miter"/>
   </g>
   <g id="patch_172">
    <path d="M 512.116364 253.44 
L 518.225455 253.44 
L 518.225455 122.162981 
L 512.116364 122.162981 
z
" clip-path="url(#p87d57e742d)" style="fill: #664444; stroke: #ffffff; stroke-linejoin: miter"/>
   </g>
   <g id="patch_173">
    <path d="M 518.225455 253.44 
L 524.334545 253.44 
L 524.334545 116.4549 
L 518.225455 116.4549 
z
" clip-path="url(#p87d57e742d)" style="fill: #664444; stroke: #ffffff; stroke-linejoin: miter"/>
   </g>
   <g id="patch_174">
    <path d="M 524.334545 253.44 
L 530.443636 253.44 
L 530.443636 108.687665 
L 524.334545 108.687665 
z
" clip-path="url(#p87d57e742d)" style="fill: #664444; stroke: #ffffff; stroke-linejoin: miter"/>
   </g>
   <g id="patch_175">
    <path d="M 530.443636 253.44 
L 536.552727 253.44 
L 536.552727 108.637326 
L 530.443636 108.637326 
z
" clip-path="url(#p87d57e742d)" style="fill: #664444; stroke: #ffffff; stroke-linejoin: miter"/>
   </g>
   <g id="patch_176">
    <path d="M 536.552727 253.44 
L 542.661818 253.44 
L 542.661818 99.666707 
L 536.552727 99.666707 
z
" clip-path="url(#p87d57e742d)" style="fill: #664444; stroke: #ffffff; stroke-linejoin: miter"/>
   </g>
   <g id="patch_177">
    <path d="M 542.661818 253.44 
L 548.770909 253.44 
L 548.770909 103.291825 
L 542.661818 103.291825 
z
" clip-path="url(#p87d57e742d)" style="fill: #664444; stroke: #ffffff; stroke-linejoin: miter"/>
   </g>
   <g id="patch_178">
    <path d="M 548.770909 253.44 
L 554.88 253.44 
L 554.88 98.515703 
L 548.770909 98.515703 
z
" clip-path="url(#p87d57e742d)" style="fill: #664444; stroke: #ffffff; stroke-linejoin: miter"/>
   </g>
   <g id="patch_179">
    <path d="M 554.88 253.44 
L 560.989091 253.44 
L 560.989091 95.917101 
L 554.88 95.917101 
z
" clip-path="url(#p87d57e742d)" style="fill: #664444; stroke: #ffffff; stroke-linejoin: miter"/>
   </g>
   <g id="patch_180">
    <path d="M 560.989091 253.44 
L 567.098182 253.44 
L 567.098182 101.161243 
L 560.989091 101.161243 
z
" clip-path="url(#p87d57e742d)" style="fill: #664444; stroke: #ffffff; stroke-linejoin: miter"/>
   </g>
   <g id="patch_181">
    <path d="M 567.098182 253.44 
L 573.207273 253.44 
L 573.207273 103.307471 
L 567.098182 103.307471 
z
" clip-path="url(#p87d57e742d)" style="fill: #664444; stroke: #ffffff; stroke-linejoin: miter"/>
   </g>
   <g id="patch_182">
    <path d="M 573.207273 253.44 
L 579.316364 253.44 
L 579.316364 75.890859 
L 573.207273 75.890859 
z
" clip-path="url(#p87d57e742d)" style="fill: #664444; stroke: #ffffff; stroke-linejoin: miter"/>
   </g>
   <g id="patch_183">
    <path d="M 579.316364 253.44 
L 585.425455 253.44 
L 585.425455 77.030979 
L 579.316364 77.030979 
z
" clip-path="url(#p87d57e742d)" style="fill: #664444; stroke: #ffffff; stroke-linejoin: miter"/>
   </g>
   <g id="patch_184">
    <path d="M 585.425455 253.44 
L 591.534545 253.44 
L 591.534545 78.266335 
L 585.425455 78.266335 
z
" clip-path="url(#p87d57e742d)" style="fill: #664444; stroke: #ffffff; stroke-linejoin: miter"/>
   </g>
   <g id="patch_185">
    <path d="M 591.534545 253.44 
L 597.643636 253.44 
L 597.643636 79.873115 
L 591.534545 79.873115 
z
" clip-path="url(#p87d57e742d)" style="fill: #664444; stroke: #ffffff; stroke-linejoin: miter"/>
   </g>
   <g id="patch_186">
    <path d="M 597.643636 253.44 
L 603.752727 253.44 
L 603.752727 74.536457 
L 597.643636 74.536457 
z
" clip-path="url(#p87d57e742d)" style="fill: #664444; stroke: #ffffff; stroke-linejoin: miter"/>
   </g>
   <g id="patch_187">
    <path d="M 603.752727 253.44 
L 609.861818 253.44 
L 609.861818 78.955441 
L 603.752727 78.955441 
z
" clip-path="url(#p87d57e742d)" style="fill: #664444; stroke: #ffffff; stroke-linejoin: miter"/>
   </g>
   <g id="patch_188">
    <path d="M 609.861818 253.44 
L 615.970909 253.44 
L 615.970909 74.8555 
L 609.861818 74.8555 
z
" clip-path="url(#p87d57e742d)" style="fill: #664444; stroke: #ffffff; stroke-linejoin: miter"/>
   </g>
   <g id="patch_189">
    <path d="M 615.970909 253.44 
L 622.08 253.44 
L 622.08 70.00387 
L 615.970909 70.00387 
z
" clip-path="url(#p87d57e742d)" style="fill: #664444; stroke: #ffffff; stroke-linejoin: miter"/>
   </g>
   <g id="patch_190">
    <path d="M 622.08 253.44 
L 628.189091 253.44 
L 628.189091 71.835816 
L 622.08 71.835816 
z
" clip-path="url(#p87d57e742d)" style="fill: #664444; stroke: #ffffff; stroke-linejoin: miter"/>
   </g>
   <g id="patch_191">
    <path d="M 628.189091 253.44 
L 634.298182 253.44 
L 634.298182 65.205299 
L 628.189091 65.205299 
z
" clip-path="url(#p87d57e742d)" style="fill: #664444; stroke: #ffffff; stroke-linejoin: miter"/>
   </g>
   <g id="patch_192">
    <path d="M 634.298182 253.44 
L 640.407273 253.44 
L 640.407273 53.255812 
L 634.298182 53.255812 
z
" clip-path="url(#p87d57e742d)" style="fill: #664444; stroke: #ffffff; stroke-linejoin: miter"/>
   </g>
   <g id="patch_193">
    <path d="M 640.407273 253.44 
L 646.516364 253.44 
L 646.516364 71.597044 
L 640.407273 71.597044 
z
" clip-path="url(#p87d57e742d)" style="fill: #664444; stroke: #ffffff; stroke-linejoin: miter"/>
   </g>
   <g id="patch_194">
    <path d="M 646.516364 253.44 
L 652.625455 253.44 
L 652.625455 71.512691 
L 646.516364 71.512691 
z
" clip-path="url(#p87d57e742d)" style="fill: #664444; stroke: #ffffff; stroke-linejoin: miter"/>
   </g>
   <g id="patch_195">
    <path d="M 652.625455 253.44 
L 658.734545 253.44 
L 658.734545 70.00591 
L 652.625455 70.00591 
z
" clip-path="url(#p87d57e742d)" style="fill: #664444; stroke: #ffffff; stroke-linejoin: miter"/>
   </g>
   <g id="patch_196">
    <path d="M 658.734545 253.44 
L 664.843636 253.44 
L 664.843636 62.031195 
L 658.734545 62.031195 
z
" clip-path="url(#p87d57e742d)" style="fill: #664444; stroke: #ffffff; stroke-linejoin: miter"/>
   </g>
   <g id="patch_197">
    <path d="M 664.843636 253.44 
L 670.952727 253.44 
L 670.952727 80.825482 
L 664.843636 80.825482 
z
" clip-path="url(#p87d57e742d)" style="fill: #664444; stroke: #ffffff; stroke-linejoin: miter"/>
   </g>
   <g id="patch_198">
    <path d="M 670.952727 253.44 
L 677.061818 253.44 
L 677.061818 73.300421 
L 670.952727 73.300421 
z
" clip-path="url(#p87d57e742d)" style="fill: #664444; stroke: #ffffff; stroke-linejoin: miter"/>
   </g>
   <g id="patch_199">
    <path d="M 677.061818 253.44 
L 683.170909 253.44 
L 683.170909 77.9677 
L 677.061818 77.9677 
z
" clip-path="url(#p87d57e742d)" style="fill: #664444; stroke: #ffffff; stroke-linejoin: miter"/>
   </g>
   <g id="patch_200">
    <path d="M 683.170909 253.44 
L 689.28 253.44 
L 689.28 76.194256 
L 683.170909 76.194256 
z
" clip-path="url(#p87d57e742d)" style="fill: #664444; stroke: #ffffff; stroke-linejoin: miter"/>
   </g>
   <g id="patch_201">
    <path d="M 689.28 253.44 
L 695.389091 253.44 
L 695.389091 70.967121 
L 689.28 70.967121 
z
" clip-path="url(#p87d57e742d)" style="fill: #664444; stroke: #ffffff; stroke-linejoin: miter"/>
   </g>
   <g id="patch_202">
    <path d="M 695.389091 253.44 
L 701.498182 253.44 
L 701.498182 68.399811 
L 695.389091 68.399811 
z
" clip-path="url(#p87d57e742d)" style="fill: #664444; stroke: #ffffff; stroke-linejoin: miter"/>
   </g>
   <g id="patch_203">
    <path d="M 701.498182 253.44 
L 707.607273 253.44 
L 707.607273 68.235188 
L 701.498182 68.235188 
z
" clip-path="url(#p87d57e742d)" style="fill: #664444; stroke: #ffffff; stroke-linejoin: miter"/>
   </g>
   <g id="patch_204">
    <path d="M 707.607273 253.44 
L 713.716364 253.44 
L 713.716364 70.810661 
L 707.607273 70.810661 
z
" clip-path="url(#p87d57e742d)" style="fill: #664444; stroke: #ffffff; stroke-linejoin: miter"/>
   </g>
   <g id="patch_205">
    <path d="M 713.716364 253.44 
L 719.825455 253.44 
L 719.825455 58.848928 
L 713.716364 58.848928 
z
" clip-path="url(#p87d57e742d)" style="fill: #664444; stroke: #ffffff; stroke-linejoin: miter"/>
   </g>
   <g id="patch_206">
    <path d="M 719.825455 253.44 
L 725.934545 253.44 
L 725.934545 59.418308 
L 719.825455 59.418308 
z
" clip-path="url(#p87d57e742d)" style="fill: #664444; stroke: #ffffff; stroke-linejoin: miter"/>
   </g>
   <g id="patch_207">
    <path d="M 725.934545 253.44 
L 732.043636 253.44 
L 732.043636 62.791729 
L 725.934545 62.791729 
z
" clip-path="url(#p87d57e742d)" style="fill: #664444; stroke: #ffffff; stroke-linejoin: miter"/>
   </g>
   <g id="patch_208">
    <path d="M 732.043636 253.44 
L 738.152727 253.44 
L 738.152727 49.279679 
L 732.043636 49.279679 
z
" clip-path="url(#p87d57e742d)" style="fill: #664444; stroke: #ffffff; stroke-linejoin: miter"/>
   </g>
   <g id="patch_209">
    <path d="M 738.152727 253.44 
L 744.261818 253.44 
L 744.261818 49.161993 
L 738.152727 49.161993 
z
" clip-path="url(#p87d57e742d)" style="fill: #664444; stroke: #ffffff; stroke-linejoin: miter"/>
   </g>
   <g id="patch_210">
    <path d="M 744.261818 253.44 
L 750.370909 253.44 
L 750.370909 43.168202 
L 744.261818 43.168202 
z
" clip-path="url(#p87d57e742d)" style="fill: #664444; stroke: #ffffff; stroke-linejoin: miter"/>
   </g>
   <g id="patch_211">
    <path d="M 750.370909 253.44 
L 756.48 253.44 
L 756.48 42.841676 
L 750.370909 42.841676 
z
" clip-path="url(#p87d57e742d)" style="fill: #664444; stroke: #ffffff; stroke-linejoin: miter"/>
   </g>
   <g id="patch_212">
    <path d="M 756.48 253.44 
L 762.589091 253.44 
L 762.589091 41.314487 
L 756.48 41.314487 
z
" clip-path="url(#p87d57e742d)" style="fill: #664444; stroke: #ffffff; stroke-linejoin: miter"/>
   </g>
   <g id="patch_213">
    <path d="M 762.589091 253.44 
L 768.698182 253.44 
L 768.698182 24.028342 
L 762.589091 24.028342 
z
" clip-path="url(#p87d57e742d)" style="fill: #664444; stroke: #ffffff; stroke-linejoin: miter"/>
   </g>
   <g id="patch_214">
    <path d="M 768.698182 253.44 
L 774.807273 253.44 
L 774.807273 27.748697 
L 768.698182 27.748697 
z
" clip-path="url(#p87d57e742d)" style="fill: #664444; stroke: #ffffff; stroke-linejoin: miter"/>
   </g>
   <g id="patch_215">
    <path d="M 774.807273 253.44 
L 780.916364 253.44 
L 780.916364 20.787572 
L 774.807273 20.787572 
z
" clip-path="url(#p87d57e742d)" style="fill: #664444; stroke: #ffffff; stroke-linejoin: miter"/>
   </g>
   <g id="patch_216">
    <path d="M 780.916364 253.44 
L 787.025455 253.44 
L 787.025455 38.206369 
L 780.916364 38.206369 
z
" clip-path="url(#p87d57e742d)" style="fill: #664444; stroke: #ffffff; stroke-linejoin: miter"/>
   </g>
   <g id="patch_217">
    <path d="M 440.64 253.44 
L 440.64 5.76 
" style="fill: none; stroke: #ffffff; stroke-width: 1.25; stroke-linejoin: miter; stroke-linecap: square"/>
   </g>
   <g id="patch_218">
    <path d="M 803.52 253.44 
L 803.52 5.76 
" style="fill: none; stroke: #ffffff; stroke-width: 1.25; stroke-linejoin: miter; stroke-linecap: square"/>
   </g>
   <g id="patch_219">
    <path d="M 440.64 253.44 
L 803.52 253.44 
" style="fill: none; stroke: #ffffff; stroke-width: 1.25; stroke-linejoin: miter; stroke-linecap: square"/>
   </g>
   <g id="patch_220">
    <path d="M 440.64 5.76 
L 803.52 5.76 
" style="fill: none; stroke: #ffffff; stroke-width: 1.25; stroke-linejoin: miter; stroke-linecap: square"/>
   </g>
   <g id="legend_2">
    <g id="patch_221">
     <path d="M 448.34 29.890895 
L 548.410779 29.890895 
Q 550.610779 29.890895 550.610779 27.690895 
L 550.610779 13.46 
Q 550.610779 11.26 548.410779 11.26 
L 448.34 11.26 
Q 446.14 11.26 446.14 13.46 
L 446.14 27.690895 
Q 446.14 29.890895 448.34 29.890895 
z
" style="opacity: 0.8; stroke: #cccccc; stroke-linejoin: miter"/>
    </g>
    <g id="patch_222">
     <path d="M 450.54 23.36 
L 472.54 23.36 
L 472.54 15.66 
L 450.54 15.66 
z
" style="fill: #664444; stroke: #ffffff; stroke-linejoin: miter"/>
    </g>
    <g id="text_27">
     <!-- Year of death -->
     <g style="fill: #ffffff" transform="translate(481.34 23.36) scale(0.11 -0.11)">
      <use xlink:href="#CMR17-59" transform="scale(0.996264)"/>
      <use xlink:href="#CMR17-65" transform="translate(61.265174 0) scale(0.996264)"/>
      <use xlink:href="#CMR17-61" transform="translate(101.750835 0) scale(0.996264)"/>
      <use xlink:href="#CMR17-72" transform="translate(147.441312 0) scale(0.996264)"/>
      <use xlink:href="#CMR17-6f" transform="translate(212.798046 0) scale(0.996264)"/>
      <use xlink:href="#CMR17-66" transform="translate(258.488523 0) scale(0.996264)"/>
      <use xlink:href="#CMR17-64" transform="translate(316.038002 0) scale(0.996264)"/>
      <use xlink:href="#CMR17-65" transform="translate(366.933372 0) scale(0.996264)"/>
      <use xlink:href="#CMR17-61" transform="translate(407.419032 0) scale(0.996264)"/>
      <use xlink:href="#CMR17-74" transform="translate(453.109509 0) scale(0.996264)"/>
      <use xlink:href="#CMR17-68" transform="translate(488.390277 0) scale(0.996264)"/>
     </g>
    </g>
   </g>
  </g>
 </g>
 <defs>
  <clipPath id="p7f3d8c0a57">
   <rect x="60.48" y="5.76" width="362.88" height="247.68"/>
  </clipPath>
  <clipPath id="p87d57e742d">
   <rect x="440.64" y="5.76" width="362.88" height="247.68"/>
  </clipPath>
 </defs>
</svg>
